<svg width="600" height="600" viewBox="0 0 600 600" xmlns="http://www.w3.org/2000/svg">
  <path style="fill:#89e6ae;" d="M19.384 597.171c1.094-5.91 5.354-13.42 11.407-20.112 11.773-13.015 14.272-17.206 21.906-36.729 3.868-9.894 4.71-13.388 5.855-24.299.765-7.3 2.031-14.087 2.963-15.89.895-1.73 5.445-7.944 10.11-13.808 10.645-13.378 13.296-18.926 18.26-38.215 4.681-18.188 6.68-23.181 12.598-31.475 6.45-9.04 14.098-15.569 32.017-27.337 20.033-13.156 27.805-19.078 43.389-33.06 23.916-21.456 30.76-25.301 57.868-32.516 46.837-12.466 51.58-16.055 69.44-52.559 6.054-12.375 13.013-25.525 15.464-29.222 6.027-9.093 13.672-15.644 25.532-21.88 11.947-6.28 15.394-9.978 20.296-21.772 4.801-11.548 9.807-18.612 16.882-23.82 8.593-6.326 15.63-8.04 35.637-8.684 20.613-.663 35.163-2.728 54.936-7.796 10.516-2.695 20.098-4.404 30.031-5.356 8.024-.769 17.049-1.925 20.057-2.57 3.718-.798 10.428-.955 20.968-.493 19.027.835 24.561-.112 30.152-5.163 4.246-3.836 12.807-16.138 19.872-28.557 2.441-4.29 4.598-7.32 4.794-6.734.871 2.614-15.575 28.852-22.295 35.567-6.15 6.147-9.993 6.974-30.88 6.645-12.376-.194-20.815.188-27.5 1.245-5.303.838-14.57 1.99-20.59 2.56-6.021.569-16.821 2.584-24 4.478-21.098 5.565-33.025 7.238-60.053 8.425-15.37.675-17.553 1-22.768 3.39-9.547 4.375-15.88 11.656-22.717 26.124-3.377 7.145-7.279 13.809-9.22 15.75-1.852 1.85-7.608 5.613-12.792 8.363-10.87 5.766-19.693 13.45-25.202 21.947-2.12 3.271-9.041 16.465-15.38 29.321-10.425 21.142-12.118 23.965-17.723 29.565-9.565 9.554-20.678 14.435-51.655 22.688-29.77 7.931-32.313 9.414-62.543 36.471-12.1 10.83-18.078 15.297-37.5 28.02-12.087 7.917-18.786 13.106-25.05 19.398-11.284 11.338-14.527 17.698-20.396 39.993-5.305 20.158-7.74 25.203-18.691 38.746-4.381 5.418-8.653 11.135-9.493 12.704s-2.182 8.769-2.982 16c-1.315 11.885-1.99 14.491-7.04 27.147-6.818 17.083-8.556 20.13-17.116 29.997-9.781 11.275-11.954 14.422-13.813 20.003-2.09 6.275-3.945 8.415-3.035 3.5m13.64 1.25c.05-3.675 4.904-13.347 12.211-24.334 13.96-20.987 19.101-32.274 23.418-51.416 3.356-14.879 4.818-17.78 13.793-27.377 8.916-9.535 10.796-13.228 13.039-25.623 3.066-16.938 5.827-22.5 11.17-22.5 5.452 0 13.345 9.07 13.345 15.334 0 3.78-2.389 9.632-7.023 17.203-6.942 11.342-8.12 14.878-8.986 26.982-.434 6.061-1.286 12.863-1.892 15.115-.607 2.252-4.742 9.669-9.19 16.48-4.447 6.813-9.959 15.526-12.247 19.364l-4.162 6.977-.55 14.023c-.56 14.276-2.387 21.522-5.428 21.522-.84 0-.476-1.528 1.114-4.67C73.74 591.349 74 589.479 74 578.575c0-11.92.09-12.432 3.299-18.586 1.814-3.48 7.279-12.4 12.144-19.823 4.865-7.421 9.503-15.055 10.306-16.964.804-1.908 1.825-9.018 2.269-15.799.875-13.372 1.702-15.703 11.966-33.731 5.721-10.05 5.172-15.825-2.088-21.934-7.213-6.07-10.614-1.967-14.483 17.471-1.307 6.567-2.99 13.41-3.74 15.205s-4.712 6.863-8.803 11.261-8.235 9.255-9.208 10.793c-.972 1.537-3.537 9.862-5.698 18.5-4.606 18.402-9.879 30.117-21.526 47.831C40.546 584.8 35.002 595.371 35 598.421c0 .962-.45 1.75-1 1.75s-.99-.788-.977-1.75m50.805 0c.494-.963 1.192-6.7 1.55-12.75.802-13.565 3.624-27.643 7.035-35.093 1.418-3.097 5.017-8.265 7.997-11.484 7.136-7.708 9.503-14.097 10.602-28.624 1.016-13.438 2.654-17.436 8.888-21.7 8.058-5.513 14.037-11.66 15.237-15.665 1.55-5.173.18-10.132-6.637-24.022-6.876-14.01-7.258-18.572-2.25-26.918 4.592-7.657 19.282-20.247 38.25-32.781 8.8-5.816 20.5-14.46 26-19.208 12.031-10.388 19.628-16.094 25-18.78 2.2-1.1 12.855-4.531 23.678-7.625s22.974-7.005 27-8.689c4.027-1.684 11.277-4.424 16.112-6.09 16.955-5.839 22.732-12.7 39.374-46.77 11.008-22.534 11.738-23.728 18.698-30.576 6.016-5.919 9.48-8.264 20.446-13.84 18.86-9.59 22.642-14.032 25.742-30.239.8-4.176 2.33-8.824 3.401-10.328 6.039-8.481 35.023-16.927 64.668-18.844 12.227-.791 13.452-1.06 18-3.942 7.567-4.796 13.66-6.366 28.38-7.31 7.425-.476 15.75-1.582 18.5-2.457s9.407-2.733 14.794-4.13l9.793-2.538 11.804 1.678c18.778 2.67 29.295.122 39.302-9.524 2.644-2.548 4.807-4.141 4.807-3.54 0 3.695-10.014 11.113-18.966 14.05-6.16 2.02-19.63 2.313-27.034.587-7.4-1.725-10.86-1.306-28.061 3.395-13.16 3.597-18.057 4.495-24.552 4.5-13.13.011-19.033 1.58-30.825 8.19-3.225 1.808-6.396 2.361-17.5 3.051-29.077 1.806-55.857 9.844-61.676 18.51-1.198 1.784-2.694 6.284-3.324 10-1.495 8.816-5.121 16.174-10.259 20.815-2.275 2.056-8.685 5.883-14.244 8.505-11.982 5.652-20.979 12.377-26.672 19.936-2.278 3.025-8.85 15.175-14.606 27-5.755 11.825-12.474 24.318-14.932 27.762-6.02 8.438-12.946 13.436-24.384 17.595a983 983 0 0 0-18.606 7.02c-5.027 1.97-15.827 5.419-24 7.666s-16.742 4.757-19.043 5.578c-6.317 2.256-14.593 7.968-27.193 18.771-6.258 5.366-17.834 14.002-25.725 19.192-7.89 5.19-18.296 12.734-23.122 16.763-22.28 18.602-24.387 24.497-15.26 42.686 6.367 12.686 8.348 19.901 6.922 25.2-1.256 4.663-6.736 10.978-12.415 14.306C116.19 492.594 113 498.35 113 508.502c0 13.807-3.563 23.762-11.692 32.669-2.76 3.025-5.8 7.017-6.752 8.871-3.192 6.212-6.542 22.032-7.204 34.022-.661 11.966-1.525 16.107-3.362 16.107-.686 0-.742-.619-.161-1.75m10.628-7.378c2.207-30.055 4.128-37.308 12.02-45.391 6.402-6.559 8.795-12.25 10.464-24.895 1.944-14.721 3.632-16.342 15.919-15.288 13.721 1.177 31.664 8.669 50.093 20.916 23.496 15.615 44.171 22.41 51.249 16.842 4.767-3.75 11.982-26.202 10.42-32.425-.37-1.475-2.185-4.358-4.034-6.406-1.85-2.049-4.991-6.506-6.983-9.906-3.28-5.6-4.155-6.381-9.32-8.314-6.019-2.252-17.947-4.124-37.785-5.931-16.756-1.526-23.385-4.789-36.562-17.992-10.378-10.4-13.938-16.256-13.938-22.93 0-6.563 2.095-10.176 12.156-20.969 10.732-11.513 15.101-15.144 30.344-25.215 6.602-4.363 15.422-11.51 22.06-17.877 6.795-6.52 13.411-11.863 17.162-13.862 3.486-1.858 15.043-5.798 26.941-9.184 39.165-11.146 52.759-16.842 61.942-25.952 6.891-6.837 9.383-11.04 13.698-23.103 4.218-11.793 6.698-16.736 12.507-24.933 12.502-17.64 23.688-27.722 39.973-36.03 11.24-5.734 14.602-9.046 15.768-15.527.936-5.205 3.37-9.955 8.288-16.177 9.946-12.582 29.679-20.126 58.51-22.367 11.027-.858 12.498-1.23 21.243-5.373 8.948-4.238 10.05-4.505 23.11-5.6 16.154-1.354 25.076-2.83 43.066-7.13 12.934-3.09 13.478-3.137 21.611-1.872 7.75 1.206 8.834 1.15 15.232-.797 3.79-1.152 9.814-3.87 13.39-6.041 6.082-3.694 8.758-3.967 5.972-.61-2.003 2.413-16.47 9.21-22.45 10.55-4.327.968-6.711.986-10.627.082-7.466-1.723-10.71-1.474-24.411 1.878-15.163 3.708-36.548 6.946-45.921 6.953-6.159 0-8.055.527-16.905 4.664-9.35 4.37-10.808 4.742-23.521 6-22.801 2.256-38.586 6.828-48.37 14.01-5.954 4.371-14.508 16.226-15.302 21.206-1.448 9.094-4.555 12.32-18.478 19.183-10.557 5.205-19.072 11.902-27.68 21.771-9.877 11.327-17.173 23.158-21.34 34.607-5.323 14.63-8.328 19.946-14.97 26.486-9.678 9.529-21.828 14.728-59.998 25.673-12.375 3.55-25.317 7.822-28.76 9.496-4.406 2.142-9.593 6.232-17.5 13.801-7.314 7-16.054 13.997-25.025 20.034-14.474 9.742-31.607 25.746-36.631 34.219-3.384 5.705-3.24 11.507.424 17.053 7.453 11.283 23.595 24.652 32.942 27.283 2.778.782 11.125 1.903 18.55 2.49 16.728 1.325 28.914 3.507 34.655 6.206 3.427 1.61 5.18 3.41 7.98 8.193 1.975 3.371 5.09 7.791 6.924 9.822 1.834 2.032 3.799 5.42 4.367 7.532 2.534 9.41-5.046 31.939-12.216 36.31-6.301 3.843-17.035 1.814-34.21-6.465-6.05-2.916-15.424-8.285-20.832-11.93-15.693-10.577-32.255-17.598-46.158-19.567-11.057-1.566-12.33-.26-14.02 14.391-1.313 11.389-4.05 17.997-9.966 24.055-8.409 8.614-9.219 11.57-12.293 44.9-.488 5.29-1.185 8.07-2.097 8.373-1.121.371-1.242-1.225-.677-8.92m8.543 7.966c0-3.812 5.166-26.425 6.967-30.496 1.095-2.475 4.956-8.297 8.58-12.938 9.423-12.069 11.427-15.922 11.441-22.005.026-10.922 3.66-14.524 12.427-12.316 2.862.72 16.283 8.12 33.91 18.694 16.047 9.626 31.2 18.438 33.675 19.583 3.504 1.62 6.493 2.08 13.5 2.081 19.45 0 26.61-5.748 35.036-28.134 1.405-3.73 4.506-9.938 6.893-13.795 9.196-14.859 12.287-22.539 13.586-33.76.494-4.262 2.04-11.367 3.437-15.789 5.413-17.135 4.234-23.13-5.567-28.309-4.838-2.556-6.122-2.8-12.643-2.4-7.611.468-10.763 1.811-38.496 16.407-11.968 6.298-16.87 6.603-38.246 2.379-24.636-4.869-29.689-6.854-32.093-12.609-2.793-6.684 3.649-17.843 18.43-31.931a12708 12708 0 0 0 23.054-22.05c22.812-21.876 29.454-25.288 68.11-34.984 34.485-8.65 40.83-11.084 48-18.412 6.899-7.053 14.776-18.881 25.178-37.807 15.364-27.956 20.88-34.288 41.821-48.014 6.325-4.146 12.565-8.482 13.866-9.636s4.53-6.701 7.177-12.329c11.05-23.507 22.994-29.73 59.957-31.236l19.5-.795 14.26-5.101c24.353-8.713 30.346-9.637 60.74-9.359 26.978.247 32.54-.309 39.847-3.983 2.116-1.063 4.128-1.653 4.471-1.31.829.83-1.18 2.046-7.818 4.734-5.227 2.117-6.938 2.232-34.5 2.318-33.194.104-37.621.713-59 8.115-19.322 6.69-22.486 7.316-37.119 7.333-15.903.02-28.752 2.098-37.156 6.012-9.28 4.322-14.881 10.65-21.532 24.326-6.086 12.514-5.231 11.648-22.56 22.868-16.063 10.402-27.626 22.788-34.987 37.477-7.937 15.838-21.455 37.504-27.973 44.833-8.596 9.666-15.753 12.667-51.567 21.62-13.214 3.302-27.283 7.27-31.263 8.815-10.862 4.218-22.982 12.853-35.601 25.367-6.21 6.159-15.401 14.902-20.423 19.43-5.022 4.526-11.422 11.276-14.222 15-13.735 18.262-10.726 22.505 20.427 28.801 24.254 4.901 29.108 4.691 41.18-1.786 29.246-15.688 36.039-18.053 45.915-15.981 5.945 1.247 11.296 4.648 14.14 8.988 2.492 3.805 2.042 12.122-1.233 22.746-1.525 4.95-3.154 12.33-3.618 16.4-1.217 10.669-4.19 18.619-11.527 30.835-3.556 5.921-8.052 14.815-9.99 19.765-5.177 13.217-8.953 18.455-16.018 22.22-8.024 4.277-17.378 5.833-26.02 4.328-8.246-1.436-8.292-1.46-42.077-21.69-27.209-16.294-33.198-19.358-37.845-19.358-3.523 0-5.43 3.602-5.43 10.255 0 7.698-1.213 10.21-11.38 23.587-9.364 12.322-10.924 16.015-14.22 33.658-1.527 8.178-3.4 13.322-3.4 9.338m10-1.178c0-4.798 4.172-18.422 8.023-26.2 2.23-4.506 6.627-11.022 10.001-14.823 3.312-3.731 7.364-9.443 9.004-12.693 3.09-6.122 5.662-7.812 9.86-6.48 1.117.355 10.096 5.937 19.952 12.404 20.022 13.137 28.732 17.977 37.879 21.046 15.221 5.107 38.564-.094 48.606-10.83 3.43-3.668 5.37-7.306 9.13-17.12 6.61-17.257 10.472-25.383 15.674-32.979 7.674-11.203 11.604-26.175 14.827-56.485 1.514-14.235 1.368-16.818-1.127-19.99-3.7-4.705-9.108-6.463-19.95-6.488-16.37-.037-28.995 3.993-52.313 16.7-6.119 3.334-7.706 3.768-13.5 3.69-7.748-.103-27.278-4.769-32.736-7.82-8.612-4.815-4.373-12.728 19.603-36.6 13.504-13.446 26.622-24.194 34.324-28.123 2.223-1.134 7.012-2.476 10.643-2.982 15.154-2.113 49.976-11.833 60.713-16.947 12.78-6.087 28.6-23.692 48.764-54.268 14.8-22.443 24.757-33.944 35.527-41.04 9.038-5.954 16.483-14.485 25.859-29.632l7.737-12.5 8.03-3.205c15.256-6.09 17.731-6.464 48.47-7.322 17.638-.492 32.311-1.412 38.5-2.414 5.52-.894 21.426-2.016 35.5-2.504 24.954-.867 36.74-2.288 45.964-5.542 2.22-.784 4.036-1.031 4.036-.551s-1.912 1.573-4.25 2.43c-8.869 3.248-21.443 4.765-46.75 5.64-15.551.537-30.962 1.668-39.5 2.897-10.453 1.505-19.362 2.023-35.162 2.043-23.716.031-31.314 1.066-44.132 6.009-9.202 3.549-9.26 3.607-18.81 19.117-8.147 13.23-14.348 20.362-22.175 25.506-14.107 9.27-20.51 16.548-37.8 42.971-6.451 9.859-14.46 21.3-17.795 25.425-8.318 10.284-21.542 23.285-26.783 26.331-9.368 5.445-50.634 17.528-65.67 19.23-10.085 1.14-20.887 8.455-40.518 27.439-18.138 17.538-28.487 30.667-27.076 34.344.835 2.178 8.468 5.081 21.421 8.15 15.156 3.589 19.485 3.17 29.804-2.879 17.185-10.075 30.672-14.497 46.767-15.336 16.71-.871 25.27 3.026 27.01 12.297.362 1.934.17 7.658-.43 12.72a4340 4340 0 0 0-2.188 18.939c-1.25 11.072-4.965 25.89-8.34 33.265-1.258 2.75-4.334 7.987-6.835 11.637-2.766 4.037-6.807 12.457-10.32 21.5-7.552 19.444-9.582 23.378-14.123 27.365-10.035 8.811-31.738 14.048-45.152 10.895-8.218-1.932-24.14-10.37-43.139-22.863-13.469-8.857-19.13-12.049-20.984-11.832-1.986.233-3.344 1.776-6.247 7.095-2.04 3.74-5.926 9.223-8.635 12.188-8.382 9.171-15.44 24.304-16.823 36.067-.632 5.375-2.365 7.653-2.365 3.108m8.524-2.41c1.045-7.682 4.873-14.26 14.744-25.336 5.104-5.728 10.312-11.875 11.573-13.662 2.938-4.163 6.325-5.02 11.015-2.787 2.004.955 10.394 6.26 18.644 11.791 23.907 16.027 32.995 19.412 49.5 18.437 18.458-1.09 34.211-9.686 40.79-22.256.594-1.135 3.627-9.223 6.739-17.973 6.616-18.603 7.973-21.453 14.978-31.464 6.097-8.712 12.031-20.298 23.466-45.816 7.572-16.897 8.391-19.377 10.569-32 3.65-21.159 6.356-27.17 16.422-36.49 5.63-5.213 13.857-9.912 27.217-15.546 9.014-3.802 14.82-15.483 14.82-29.817 0-10.482 1.31-13.019 10.5-20.331 14.409-11.466 14.053-19.338-1.29-28.554-2.908-1.746-6.556-2.818-11.328-3.328-9.719-1.039-10.792-3.406-5.04-11.118 4.82-6.464 18.927-20.451 26.222-26 11.61-8.831 15.608-12.773 24.068-23.732 11.433-14.81 17.921-18.856 33.873-21.121 19.988-2.838 32.888-2.39 35.906 1.247.63.76 2.162 6.315 3.405 12.346s3.063 12.191 4.045 13.69c2.117 3.23 12.84 8.568 17.214 8.57 5.01 0 10.832-8.137 10.233-14.304-.29-2.99-.681-3.277-6.63-4.878-4.996-1.343-7.66-2.874-12.695-7.294-9.665-8.486-9.579-11.637.36-13.128 5.913-.887 29.336.264 35.156 1.728 2.475.622 9 1.17 14.5 1.219 9.6.084 10.392-.08 19.763-4.085 9.377-4.007 19.737-6.77 19.737-5.265 0 .396-2.96 1.45-6.58 2.343s-10.252 3.282-14.74 5.308c-7.32 3.306-9.034 3.687-16.67 3.71-4.68.013-11.66-.622-15.51-1.412-9.117-1.87-38.825-2.01-40.648-.19-2.548 2.541 10.715 13.69 18.32 15.398 7.818 1.756 9.168 4.562 6.277 13.045-3.185 9.348-9.47 11.771-19.106 7.364-10.402-4.757-12.622-8.324-15.394-24.735-1.699-10.051-2.29-10.37-18.819-10.112-7.496.117-17.073.874-21.28 1.683-13.911 2.674-18.621 6.213-33.02 24.812-4.732 6.113-9.379 10.644-16 15.603-15.26 11.43-35.275 33.043-33.403 36.072.28.452 3.43 1.096 7 1.429C392.971 299.653 405 309.046 405 317.67c0 4.338-2.56 7.942-11.112 15.641-9.616 8.657-10.94 11.188-10.19 19.468.668 7.36-1.274 14.676-5.911 22.278-3.496 5.73-4.642 6.514-19.015 13.015-15.96 7.219-24.875 16.125-29.627 29.598-1.164 3.3-3.045 11.625-4.18 18.5-1.901 11.506-2.788 14.13-11.156 33-12.122 27.337-14.631 32.218-22.447 43.665-7.626 11.17-9.362 14.826-15.694 33.05-5.964 17.168-7.36 19.758-14.056 26.09-12.333 11.665-31.718 16.574-50.083 12.684-9.547-2.023-19.444-6.934-34.003-16.873-22.589-15.423-23.777-15.838-28.203-9.866-1.529 2.062-6.12 7.348-10.203 11.745-10.256 11.044-13.942 16.898-15.326 24.336-1.342 7.216-3.218 8.39-2.27 1.419m10.498-.5c.034-8.075 2.6-12.39 12.809-21.544 13.091-11.738 14.58-11.823 30.005-1.716 18.458 12.093 32.173 17.195 49.958 18.581 20.273 1.58 29.187-.893 38.011-10.548 5.501-6.02 11.197-16.535 16.534-30.523 5.72-14.995 11.435-20.23 16.256-14.89 1.743 1.93 1.9 3.785 1.835 21.75-.058 16.089-.45 21.358-2.172 29.14-2.632 11.897-3.812 15-5.708 15-1.227 0-1.307-.501-.44-2.75 3.929-10.192 8.015-48.482 6.1-57.155-.945-4.275-3.382-6.027-5.704-4.1-2.192 1.82-5.958 9.348-9.147 18.287-6.742 18.893-17.309 32.315-28.859 36.656-5.53 2.079-7.25 2.222-22 1.833-14.717-.388-16.738-.674-25.211-3.565-11.496-3.921-20.61-8.484-32.36-16.2-12.17-7.99-13.142-7.953-23.552.912-10.309 8.779-12.311 11.652-13.677 19.622-.608 3.553-1.465 6.46-1.903 6.46s-.787-2.363-.775-5.25m14.387-5.568c3.041-6.064 6.543-11.736 7.783-12.604 4.349-3.046 9.075-2.048 16.212 3.422 3.588 2.75 7.015 5 7.615 5s9.054 3.1 18.786 6.887c9.732 3.788 18.595 7.11 19.695 7.384 1.5.373 1.296.526-.814.613-1.548.064-7.623-1.737-13.5-4-5.877-2.265-14.508-5.475-19.18-7.134s-10.297-4.475-12.5-6.259c-6.099-4.936-9.982-6.64-12.74-5.592-3.341 1.27-4.691 3.125-9.766 13.413-2.475 5.018-5.09 9.297-5.81 9.509s1.178-4.575 4.219-10.64m112.178 8.734c5.447-2.645 9.094-6.567 17.163-18.458 3.83-5.645 7.573-10.102 8.652-10.305 1.81-.34 1.873.219 1.3 11.494-.626 12.3-2.031 19.353-3.856 19.353-.604 0-.765-.752-.373-1.75 1.338-3.41 2.516-12.85 2.521-20.208l.006-7.458-7.75 11.458c-7.962 11.772-14.805 18.02-19.613 17.908-1.572-.037-1.056-.574 1.95-2.034m39.892.334c2.739-6.922 3.74-16.832 4.518-44.75.682-24.457 1.225-31.8 2.94-39.744 3.921-18.175 10.825-33.928 20.341-46.416 9.41-12.348 12.039-20.123 11-32.537-.688-8.245 1.082-17.927 4.292-23.466 2.595-4.478 6.565-7.35 12.93-9.354 12.043-3.792 24.89-12.398 39.5-26.46 10.38-9.992 15.271-13.631 24.707-18.383 9.936-5.003 20.26-8.023 30.72-8.984 8.433-.776 10.736-1.422 17.397-4.88 31.297-16.253 29.359-15.524 52.535-19.736 10.277-1.868 14.777-3.936 19.641-9.028 1.925-2.015 6.425-5.741 10-8.28 9.413-6.686 38.023-29.533 41.26-32.95 1.518-1.602 4.32-5.808 6.227-9.347 2.223-4.124 3.476-5.672 3.49-4.31.035 3.23-4.857 11.279-9.935 16.344-4.277 4.267-31.41 25.83-39.042 31.027-1.925 1.31-6.282 4.954-9.683 8.097-7.325 6.769-12.76 9.046-26.988 11.307-13.74 2.184-21.155 4.656-31.829 10.612-19.112 10.664-22.6 12.054-32.656 13.008-11.678 1.107-20.803 3.875-32.337 9.808-7.205 3.706-11.205 6.744-20.125 15.285-16.086 15.403-28.838 23.974-42.163 28.338-6.725 2.204-10.47 5.376-13.362 11.322-1.988 4.088-2.378 6.822-2.881 20.227-.676 17.983-1.648 21.011-10.44 32.5-7.076 9.247-12.745 19.96-16.407 31-5.56 16.766-6.24 21.881-7.166 54-.476 16.5-1.332 32.183-1.903 34.851-1.932 9.036-3.133 12.649-4.205 12.649-.615 0-.775-.743-.376-1.75M310 599.797c0-.206.76-2.344 1.688-4.75 1.46-3.783 1.699-8.98 1.761-38.376.073-33.855.085-34.042 2.812-43.977 4.4-16.028 11.193-28.757 20.714-38.815 4.42-4.67 8.774-10.226 9.676-12.349 1.144-2.693 1.849-8.543 2.33-19.359 1.006-22.55 2.707-25.567 17.52-31.08 9.479-3.528 12.978-6.19 30-22.828 22.596-22.087 28.689-25.482 48.646-27.104 12.446-1.012 15.261-2.059 29.298-10.902 19.805-12.477 26.196-14.757 43.912-15.663 17.522-.895 18.799-1.356 26.55-9.581 4.751-5.043 10.547-9.5 20.747-15.958 17.514-11.09 21.617-14.669 28.724-25.057 3.092-4.52 5.622-7.43 5.622-6.468 0 2.338-7.34 13.037-12.422 18.105-3.787 3.777-7.005 6.02-26.935 18.773-7.271 4.652-9.295 6.396-16.983 14.627-4.653 4.982-10.951 7.123-21.091 7.167-18.598.08-26.24 2.577-46.434 15.164-14.573 9.084-19.094 10.745-32.135 11.805-18.53 1.506-26.02 5.884-47.99 28.057-14.19 14.318-20.201 18.762-29.01 21.443-7.129 2.17-11.151 4.877-13.199 8.882-1.732 3.39-2.243 6.86-2.887 19.618-1.072 21.25-1.704 22.99-12.136 33.41-10.696 10.684-19.09 28.226-22.461 46.94-1.275 7.08-1.567 13.676-1.289 29.15.646 35.88.56 38.618-1.38 44.25-.995 2.887-2.222 5.25-2.728 5.25s-.92-.168-.92-.374m12.422-1.283c1.643-4.282 1.763-26.042.191-34.843-1.997-11.185-2.05-28.749-.113-38 1.877-8.975 8.12-21.549 14.022-28.244 2.543-2.885 8.078-8.241 12.3-11.904 11.087-9.616 11.216-9.892 10.004-21.352-1.204-11.384-.546-21.706 1.655-25.963.885-1.712 3.052-3.734 4.814-4.493 20.859-8.983 25.532-12.675 35.502-28.044 7.587-11.695 18.622-23.172 25.703-26.732 3.432-1.725 7.51-2.728 13-3.198 11.556-.989 17.201-2.879 25.05-8.387 9.748-6.841 12.693-8.183 17.966-8.183 5.77 0 7.58-.945 14.69-7.665 8.515-8.048 11.971-9.287 25.98-9.313 6.426-.012 12.918-.491 14.427-1.065s6.53-4.286 11.16-8.25c10.39-8.896 14.537-11.955 24.727-18.24 4.4-2.714 12.163-8.946 17.25-13.848 6.973-6.719 9.25-8.418 9.25-6.904 0 2.947-15.075 16.926-24.5 22.718-9.279 5.703-12.656 8.214-25.199 18.742-5.658 4.75-10.661 8.105-13 8.719-2.09.55-8.526.939-14.3.865-12.965-.164-15.503.821-24.935 9.679-6.042 5.674-7.5 6.565-10.776 6.586-6.786.043-11.244 1.695-18.948 7.02-9.801 6.776-15.772 8.983-26.92 9.952-5.816.505-10.508 1.517-13.053 2.816-8.278 4.223-18.586 15.337-26.61 28.688-6.884 11.457-17.197 19.495-32.149 25.06-4.173 1.552-5.18 2.475-6.87 6.296-1.814 4.1-1.92 5.795-1.272 20.11l.708 15.634-2.89 2.95c-1.589 1.622-6.772 6.439-11.517 10.702-9.781 8.79-17.381 19.356-20.777 28.89-3.22 9.038-3.938 30.915-1.466 44.641 2.5 13.884 1.113 36.217-2.25 36.217-.976 0-1.27-.571-.854-1.657m12.57-10.593c-.006-8.177-.834-17.403-2.492-27.75-2.882-17.996-3.093-25.304-.962-33.482 2.155-8.277 4.176-11.097 14.709-20.53 12.212-10.94 18.328-18.116 22-25.818 3.786-7.944 4.386-13.176 2.73-23.824-1.243-7.984-1.206-8.563.698-11.134 2.822-3.81 7.298-6.645 15.348-9.72 8.935-3.415 15.072-8.94 25.54-22.992 13.141-17.639 15.752-19.493 34.437-24.463 6.768-1.8 15.65-5.111 21.587-8.048 8.128-4.02 11.079-4.989 15.2-4.989 9.552 0 14.58-1.719 20.703-7.076 7.681-6.722 10.149-7.83 22.318-10.025 12.925-2.33 15.448-3.758 30.196-17.078 16.988-15.343 24.199-21.278 29.629-24.382 2.677-1.53 6.78-4.31 9.117-6.177 2.807-2.243 4.25-2.905 4.25-1.95 0 .794-2.475 3.074-5.5 5.066l-10.75 7.08c-2.887 1.902-11.297 8.933-18.688 15.625-21.958 19.882-24.808 21.683-37.062 23.416-9.8 1.386-15.117 3.53-19.942 8.044-6.472 6.054-12.554 8.548-22.436 9.2-6.926.456-9.152 1.091-15.122 4.316-6.286 3.397-15.391 6.563-32.855 11.427-7.492 2.087-13.17 7.274-24.12 22.037-8.766 11.817-14.569 17.456-20.824 20.235-12.245 5.441-18.317 8.955-19.632 11.36-1.225 2.242-1.24 3.855-.1 11.186 1.048 6.731 1.084 9.812.17 14.381-2.202 11.004-5.378 15.662-21.696 31.815-13.275 13.141-15.419 15.717-17.298 20.788-2.779 7.498-2.803 17.388-.079 33.212 2.443 14.197 3.82 42.5 2.068 42.5-.783 0-1.136-3.79-1.142-12.25m14.631 10.71c-.343-.895-1.102-14.785-1.686-30.867-1.492-41.054-.5-44.657 17.483-63.508 13.325-13.97 17.704-21.312 21.397-35.875 3.094-12.201 4.15-13.864 12.683-19.97 8.722-6.24 12.488-10.42 21.034-23.345 4.583-6.933 9.743-13.791 11.465-15.24 1.992-1.677 7.928-4.114 16.316-6.7 7.252-2.236 15.982-5.38 19.401-6.984 3.42-1.606 10.743-4.066 16.276-5.469 12.48-3.163 18.807-6.001 26.508-11.89 4.085-3.123 10.469-6.364 20-10.156 17.376-6.912 21.207-9.14 30-17.44 3.85-3.636 9.475-8.428 12.5-10.65 5.453-4.006 25.441-16.366 26.467-16.366 1.996 0-.433 2.143-6.217 5.484-12.299 7.105-20.895 13.312-29.592 21.37-10.229 9.476-14.893 12.23-32.405 19.126-9.117 3.59-15.352 6.782-20 10.236-8.23 6.116-12.612 8.074-26.555 11.866-5.942 1.616-12.917 4.006-15.5 5.312s-10.277 4.024-17.095 6.04c-6.819 2.017-13.569 4.28-15 5.031-3.977 2.084-8.33 7.143-14.663 17.035-8.516 13.303-11.605 16.76-21.08 23.602-9.522 6.873-10.068 7.747-13.253 21.173-3.282 13.838-8.405 22.144-22.698 36.799-16.168 16.577-16.948 19.676-15.53 61.672.57 16.87.886 30.822.702 31.006-.183.184-.615-.398-.958-1.292m16.01-.21c-1.246-4.338-3.573-21.36-3.725-27.25-.357-13.798 1.248-39.4 2.64-42.09.761-1.474 5.167-7.248 9.79-12.831 4.624-5.584 10.377-13.758 12.785-18.167 11.712-21.443 14.229-25.076 22.377-32.293 4.4-3.897 11.635-10.693 16.077-15.102 6.896-6.846 8.478-9.07 10.821-15.225 5.79-15.207 8.728-17.105 38.32-24.762 11.43-2.957 23.476-6.324 26.769-7.481 8.678-3.05 61.931-34.752 74.319-44.242 9.257-7.093 22.115-15.807 23.322-15.807 2.097 0 .518 1.698-3.879 4.174-2.612 1.47-8.412 5.563-12.89 9.095-14.19 11.193-68.48 43.984-80.004 48.322-3.746 1.41-16.12 4.975-27.499 7.923-28.963 7.503-30.534 8.473-36.324 22.41-4.415 10.626-6.388 13.112-19.553 24.639-14.662 12.838-17.45 16.205-24.9 30.069-7.687 14.307-10.623 18.752-18.357 27.792-11.077 12.947-10.95 12.627-11.58 29.355-.79 21.036-.425 30.28 1.682 42.483 1.02 5.906 1.507 10.738 1.082 10.738s-.997-.788-1.274-1.75m12.878.5c-2.445-7.173-3.457-15.28-3.716-29.782-.26-14.552-.08-16.862 1.507-19.294.992-1.52 2.934-3.193 4.316-3.719s9.448-.955 17.924-.955c17.474 0 17.547.034 18.95 8.756.817 5.067 3.415 7.244 8.649 7.244 6.18 0 6.86.632 6.86 6.384 0 3.044.634 6.078 1.544 7.376 2.19 3.127 9.332 7.836 13.724 9.049 6.57 1.814 10.117.014 20.206-10.257 7.747-7.888 10.379-9.862 17.904-13.438 5.477-2.602 10.803-6.064 14.044-9.13 6.502-6.149 10.801-7.984 18.705-7.984h6.192l5.59-5.75c3.075-3.163 7.84-8.868 10.59-12.679 6.412-8.885 9.07-10.788 15.86-11.351 4.593-.38 6.254-.011 10.625 2.368 2.85 1.551 6.342 4.19 7.761 5.866 7.355 8.68 13.35 30.495 16.777 61.046 1.696 15.126 1.782 17.5.627 17.5-.467 0-1.394-5.963-2.059-13.25-2.17-23.77-7.324-47.373-12.611-57.75-4.347-8.53-12.209-13.99-20.153-13.996-6.499-.01-8.916 1.901-18.229 14.372-10.432 13.97-12.838 15.624-22.729 15.624-6.567 0-8.315.82-14.906 6.993-3.068 2.873-8.78 6.514-14.61 9.312-8.14 3.907-10.58 5.686-16.308 11.895-9.081 9.841-13.593 12.806-19.445 12.778-11.703-.056-22.091-9.986-20.898-19.978.275-2.309-.084-2.545-4.702-3.089-8.095-.954-9.22-2.009-11.103-10.411-1.216-5.426-1.458-5.5-18.085-5.5-8.494 0-16.278.447-17.297.992-3.488 1.867-4.234 6.997-3.46 23.782.444 9.645 1.391 18.143 2.45 21.976.95 3.437 1.323 6.25.83 6.25-.494 0-1.09-.563-1.324-1.25m13.024-5c-.344-3.438-.229-11.827.255-18.643.936-13.17 1.816-15.164 6.651-15.065 5.889.12 18.447 11.457 23.62 21.323 3.91 7.458 6.35 10.271 10.964 12.638 8.629 4.426 28.755 5.282 35.975 1.53 1.925-1 7.1-5.262 11.5-9.47 21.686-20.738 24.397-22.48 37.576-24.132 11.01-1.38 14.95-3.25 23.62-11.214 8.628-7.926 12.414-10.071 16.273-9.224 5.137 1.128 8.198 6.624 10.537 18.91 2.688 14.123 3.116 39.598.665 39.597-.37 0-.683-6.863-.698-15.25-.04-22.753-3.062-36.469-8.872-40.276-3.834-2.512-6.653-1.302-15.268 6.551-9.579 8.732-15.258 11.465-26.71 12.856-11.509 1.397-14.184 3.022-30.334 18.419-16.78 15.998-19.2 17.224-33.789 17.127-18.283-.122-25.523-3.548-31.806-15.05-6.57-12.028-17.36-22.377-23.33-22.377-3.837 0-4.518 3.055-4.696 21.086-.173 17.382-1.032 21.68-2.133 10.664M507 599.678c0-.977 8.77-12.425 12.907-16.85 5.024-5.371 11.113-9.402 16.297-10.789 9.044-2.419 12.796 1.23 12.796 12.443 0 7.471-.996 15.689-1.902 15.689-.346 0-.46-4.953-.253-11.006.313-9.139.087-11.45-1.334-13.618-1.55-2.365-2.176-2.567-6.644-2.137-7.21.693-14.461 6.104-23.016 17.179-6.445 8.343-8.85 10.814-8.85 9.09m-60.883-27.138c-3.82-2.675-5.219-7.42-4.493-15.229.528-5.682.317-7.432-1.208-10.013-1.749-2.96-4.416-4.261-4.416-2.153 0 1.367-5.434 4.026-8.228 4.026-1.28 0-3.382-.739-4.672-1.642-2.183-1.53-2.312-2.149-1.872-9 .572-8.916.794-8.85-12.377-3.709-10.996 4.291-18.195 4.964-20.43 1.91-2.08-2.842-1.814-14.097.451-19.083 1.058-2.33 5.364-7.316 10.228-11.844 8.437-7.854 11.477-9.622 34.63-20.148 7.814-3.553 10.342-6.198 14.32-14.984 7.272-16.067 8.148-17.53 12.72-21.24 2.548-2.068 8.255-7.493 12.681-12.055l8.05-8.294 6.783-.956c3.731-.526 8.399-1.631 10.372-2.456 1.974-.824 5.344-1.499 7.489-1.499 3.466 0 4.773.816 11.74 7.331 5.735 5.364 9.017 7.647 12.227 8.505 2.414.646 12.713 1.284 22.888 1.42l18.5.244 4.72-2.827c7.643-4.579 10.98-2.059 10.98 8.292 0 12.131-8.971 21.035-21.194 21.035-4.627 0-7.523 2.803-6.62 6.405.344 1.366 2.827 4.342 5.518 6.611 6.477 5.461 9.94 11.835 8.34 15.347-1.69 3.71-6.103 5.55-15.633 6.516-12.032 1.22-15.516 3.662-25.13 17.621-9.281 13.477-14.87 17.923-22.181 17.646-4.09-.154-4.959.284-10.627 5.366-4.233 3.795-7.764 6.004-11.235 7.028-3.74 1.103-7.866 3.84-15.797 10.48-15.276 12.79-20.982 15.231-26.524 11.35m10.984-2.92c1.65-.855 7.2-5.104 12.334-9.445 10.747-9.088 15.17-11.995 18.26-12 1.25 0 5.54-2.848 9.968-6.61 7.489-6.365 7.928-6.585 12.01-6.025 3.71.508 4.772.174 8.533-2.687 2.362-1.797 7.314-7.48 11.006-12.63 3.691-5.15 7.966-10.7 9.5-12.334 4.055-4.32 11.837-7.696 17.788-7.714 6.07-.019 11.855-1.521 13.504-3.508 2.086-2.514.184-6.4-5.98-12.217-11.78-11.117-10.581-17.536 3.604-19.295 10.835-1.344 16.839-7.832 16.839-18.196 0-7.958-1.278-8.952-7.25-5.643-6.345 3.514-10.837 3.956-30.217 2.968-19.64-1.002-21.643-1.68-30.828-10.439-3.67-3.499-7.445-6.638-8.39-6.975s-5.413.493-9.927 1.844c-4.514 1.352-9.59 2.453-11.281 2.45-2.542-.01-4.46 1.42-11.08 8.25-4.404 4.541-9.974 9.793-12.377 11.67-4.258 3.325-6.47 7.164-12.73 22.087-2.762 6.588-7.384 11.172-14.55 14.432-23.167 10.542-26.324 12.369-34.457 19.94-4.465 4.158-8.888 9.18-9.828 11.16-2.257 4.756-2.604 15.162-.552 16.542 2.332 1.567 8.212.438 18.517-3.555 5.199-2.014 10.472-3.517 11.718-3.34 2.123.3 2.265.79 2.268 7.821 0 4.125.365 8.062.809 8.75 1.364 2.114 5.918 1.404 8.818-1.375 3.304-3.165 6.396-2.711 9.37 1.376 1.678 2.307 2 4.332 2 12.584 0 9.13.17 9.973 2.36 11.75 2.86 2.32 6.227 2.439 10.24.363m-3.46-14.199c-.776-1.513-2.142-6.31-3.037-10.661-2.138-10.398-2.533-10.81-9.637-10.006-7.563.856-9.967-1.198-9.967-8.516 0-6.296-1.073-6.678-12.971-4.625-11.187 1.93-12.51 1.934-14.4.044-2.36-2.36-.36-6.453 7.08-14.488 8.667-9.362 13.963-12.383 27.996-15.974 6.437-1.648 9.575-5.027 17.449-18.792 7.724-13.504 12.36-19.412 17.196-21.913 1.65-.853 6.021-3.748 9.713-6.434 8.4-6.11 14.334-8.835 19.3-8.863 3.493-.02 4.544.679 11.02 7.325 10.107 10.373 12.532 10.958 31.347 7.559 13.75-2.484 17.28 1.902 8.23 10.222-5.19 4.772-5.218 4.83-4.737 9.843.43 4.472 1.117 5.705 6.08 10.908 5.79 6.07 7.722 10.273 5.987 13.024-1.222 1.936-7.42 3.916-12.59 4.02-6.99.142-12.372 4.657-23.123 19.405-6.42 8.806-9.056 10.384-18.833 11.27-8.902.808-11.14 1.934-15.776 7.943-4.9 6.352-7.418 8.323-20.162 15.784-11.022 6.452-14.073 7.004-16.165 2.925m17.447-5.803c7.982-4.809 12.283-8.202 16.524-13.031 3.153-3.592 6.649-7.02 7.769-7.62 1.12-.599 5.58-1.447 9.913-1.884 4.332-.436 8.972-1.511 10.31-2.388 1.34-.878 4.993-5.055 8.12-9.284 11.69-15.806 15.402-18.585 26.064-19.511 10.643-.924 12.063-4.56 4.595-11.77-5.227-5.048-8.329-10.898-8.36-15.769-.018-2.626 1.035-4.428 5.095-8.721 8.096-8.56 5.32-10.21-11.618-6.91-4.46.87-9.77 1.29-12 .949-5.304-.81-11.55-4.574-14.917-8.988-4.443-5.826-6.743-7.52-10.206-7.52-4.959 0-7.865 1.421-21.008 10.273-13.355 8.993-14.402 10.183-25.287 28.727-7.606 12.956-9.85 14.945-19.64 17.404-3.663.92-8.898 2.807-11.632 4.192-8.128 4.119-22.002 19.666-20.18 22.614.712 1.153 4.786.945 14.238-.727 11.281-1.995 13.501-1.04 13.946 6 .45 7.127 1.384 7.875 8.866 7.109 5.782-.593 6.355-.468 7.764 1.682.837 1.277 2.24 6.125 3.12 10.774 1.64 8.68 3.702 12.448 6.271 11.462.804-.309 6.318-3.487 12.253-7.063m-10.511-10.697c-.254-1.238-.732-3.932-1.062-5.988-.666-4.14-2.744-5.762-7.384-5.762-5.579 0-7.942-1.584-9.17-6.147-.782-2.902-2.573-5.55-5.692-8.414-7.157-6.57-5.39-9.316 11.444-17.794 8.683-4.373 12.463-8.648 19.43-21.972 6.628-12.678 12.645-18.976 23.03-24.109 6.956-3.437 7.956-3.677 11.072-2.648 1.884.621 4.737 2.51 6.34 4.196 4.44 4.67 8.151 6.167 17.083 6.89 11.733.949 12.344 1.53 17.333 16.502 4.656 13.971 4.697 17.083.234 18.07-7.513 1.663-9.225 2.81-17.275 11.589-8.782 9.577-13.77 12.776-19.975 12.815-4.666.03-8.275 2.141-17.983 10.522-15.1 13.036-26.243 18.014-27.425 12.25m12.109-3.017c2.852-1.693 9.31-6.61 14.353-10.925 11.059-9.467 11.587-9.766 19.174-10.838 7.514-1.062 11.598-3.823 19.262-13.025 6.438-7.728 7.819-8.72 14.52-10.422 3.391-.862 4.583-1.676 4.82-3.292.172-1.18-1.36-7.139-3.407-13.239-4.584-13.67-5.92-14.983-15.293-15.014-7.875-.026-12.645-1.946-19.433-7.82-2.642-2.287-5.63-4.158-6.64-4.158s-5.067 1.662-9.015 3.693c-9.25 4.758-15.154 11.235-21.848 23.967-7.121 13.545-9.654 16.332-19.395 21.343-9.571 4.924-14.784 8.57-14.784 10.342 0 .684 1.768 2.918 3.928 4.965s4.469 5.402 5.13 7.456c1.755 5.45 2.413 5.942 8.613 6.457 6.562.544 7.933 1.876 8.916 8.662.367 2.538.874 4.97 1.125 5.406.667 1.155 4.09-.065 9.974-3.558M450.572 511.6c-3.492-3.492-.313-10.429 4.779-10.429 3.558 0 8.417 1.952 9.065 3.642 2.018 5.257-9.653 10.977-13.844 6.787m10.122-2.931c2.737-2.44 2.758-2.54.865-4-2.33-1.798-7.688-1.968-9.359-.298-1.293 1.294-1.62 5.047-.533 6.133 1.507 1.508 6.393.515 9.027-1.835m35.586-12.465c-4.995-2.13-3.821-11.766 2.563-21.033 4.086-5.932 10.379-10 15.468-10 7.218 0 13.69 6.32 13.69 13.368 0 2.885-.798 4.43-3.877 7.509-7.287 7.286-21.992 12.65-27.844 10.156m16.5-4.421c6.252-3.169 10.878-7.05 12.775-10.718 1.303-2.52 1.306-3.291.024-6.359-2.7-6.46-11.114-9.378-17.51-6.07-8.544 4.418-16.487 22.324-11.319 25.517 2.616 1.615 10.45.457 16.03-2.37M5.73 568.413c-2.375-.532-5.75-7.37-5.652-11.452.044-1.81.298-2.615.565-1.79 3.849 11.885 5.265 13.095 11.592 9.906 6.922-3.49 16.24-10.504 20.76-15.629 6.686-7.582 9.054-13.21 10.068-23.93 2.083-22.008 9.655-38.217 24.27-51.95l7.339-6.897 5.342-16.5c3.663-11.31 5.365-18.23 5.414-22 .068-5.261-.047-5.514-2.647-5.813-1.494-.173-6.695 1.278-11.556 3.223-13.036 5.215-21.412 6.694-42.286 7.463-17.174.633-18.948.876-23.75 3.253C1.83 437.96 0 438.434 0 437.64c0-.673 2.363-2.254 5.25-3.514 4.606-2.01 7.642-2.385 24.75-3.055 21.372-.838 30.012-2.423 42.695-7.832 12.203-5.204 16.136-3.673 14.996 5.84-.566 4.73-9.757 34.787-11.895 38.905-.661 1.273-3.37 3.906-6.02 5.851-5.518 4.05-11.97 12.694-17.047 22.837-4.85 9.691-6.66 16.309-7.734 28.281-1.327 14.779-5.971 23.225-17.877 32.511-9.578 7.47-17.897 11.73-21.387 10.948m592.528-16.742c-.671-3.85-1.92-12.625-2.776-19.5-1.853-14.895-2.956-19.368-5.687-23.062-1.71-2.313-1.97-3.816-1.575-9.104.26-3.484.05-7.278-.465-8.432-.516-1.154-3.215-3.404-5.997-5-9.023-5.176-8.914-7.635.824-18.495 7.457-8.316 10.417-13.402 10.417-17.9 0-3.956 2.146-8.991 4.862-11.412 2.706-2.411 2.747-1.258.086 2.478-1.128 1.585-2.5 5.66-3.046 9.057-1.25 7.765-1.44 8.102-10.448 18.588-9.044 10.528-9.348 12.288-2.704 15.657 8.141 4.129 9.743 7.554 7.757 16.593-.544 2.48-.148 3.947 1.85 6.844 3.133 4.545 3.975 8.26 6.666 29.397 2.212 17.373 2.362 26.48.236 14.291M7.111 547.514c-.666-1.462-1.609-10.574-2.094-20.25-.654-13.025-1.417-19.28-2.937-24.093-2.36-7.467-2.649-10.692-.625-6.974 2.97 5.459 4.731 15.848 5.562 32.82.47 9.583 1.3 17.87 1.845 18.416 2.052 2.052 6.56-.596 14.564-8.552 11.295-11.228 13.579-16.111 14.618-31.254.66-9.624 1.269-12.52 3.72-17.73 3.644-7.744 16.34-24.886 22.387-30.226 5.341-4.717 6.453-6.622 8.94-15.315 3.098-10.834 1.433-11.149-21.09-3.981-11.15 3.547-14.048 4.058-26.817 4.722-14.215.74-14.338.766-17.372 3.8-2.073 2.074-3.827 5.582-5.458 10.915-2.4 7.852-2.402 7.854-2.035 2.714.487-6.817 4.29-14.312 8.48-16.708 2.564-1.468 6.456-2.062 17.5-2.674 12.23-.678 15.728-1.28 25.201-4.334 24.957-8.046 27.71-6.886 22.424 9.446-1.71 5.283-3.28 7.65-8.888 13.415-8.435 8.668-18.525 22.25-21.804 29.351-1.907 4.13-2.67 8.011-3.34 17-1.116 14.989-4.02 21.413-14.226 31.479-11.133 10.98-16.206 13.17-18.555 8.013m12.623-38.093c-.867-.963-3.731-6.25-6.365-11.75l-4.788-10-.04-11.5c-.031-8.848.384-12.6 1.8-16.271 2.399-6.218 5.336-7.729 15.022-7.729 4.103 0 10.988-.675 15.3-1.5 10.744-2.056 14.901-1.936 17.337.5 1.1 1.1 2 2.493 2 3.096 0 2.738-3.956 7.193-11.59 13.05-9.333 7.16-9.573 7.564-15.398 25.956-5.272 16.647-8.878 21.032-13.278 16.148m5.171-2.635c.632-.762 3.355-8.178 6.051-16.48s5.535-15.998 6.31-17.103 4.293-4.213 7.82-6.904c8.752-6.678 12.327-10.61 11.531-12.684-.54-1.408-1.637-1.585-6.88-1.11-3.43.31-11.954 1.01-18.941 1.555-6.988.546-13.588 1.464-14.667 2.042-3.106 1.663-5.51 10.415-5.51 20.069 0 7.838.33 9.24 4.243 18 6.253 14.002 7.545 15.625 10.043 12.615m153.554 2.557c-7.198-3.361-11.826-11.288-9.983-17.096 1.587-5.001 12.078-6.646 19.747-3.097 2.353 1.09 6.182 2.454 8.51 3.034 5.156 1.285 6.667 3.744 5.99 9.745-.781 6.938-3.183 8.67-12.494 9.015-5.928.22-8.67-.154-11.77-1.601m19.906-2.245c2.118-1.665 2.635-2.917 2.635-6.377 0-4.856-1.182-6.25-6.095-7.187-1.873-.357-4.755-1.33-6.405-2.164-12.51-6.322-23.132.254-16.547 10.243 3.428 5.2 8.605 7.547 16.662 7.553 5.69 0 7.644-.41 9.75-2.068m398.294-17.62c-3.208-7.484-3.145-9.155.738-19.807 2.25-6.175 2.552-6.588 2.554-3.5 0 1.925-1.09 6.155-2.424 9.4l-2.426 5.9 2.504 5.95c1.377 3.27 2.367 6.563 2.2 7.315-.168.753-1.583-1.614-3.146-5.259M209 431.294c-5.05-1.661-10.962-5.185-12.022-7.165-1.78-3.327-.186-5.946 10.017-16.459 5.338-5.5 10.425-11.396 11.304-13.102 2.38-4.615 7.811-8.92 14.37-11.386 3.207-1.207 17.081-5.039 30.831-8.516 41.378-10.465 45.696-12.59 65-31.977 10.452-10.498 18.867-21.08 26.007-32.708 3.218-5.241 5.91-5.578 14.488-1.813 4.065 1.784 10.246 3.598 13.734 4.03 3.489.433 7.002 1.334 7.807 2.002 3.525 2.925.51 10.574-6.154 15.614-10.974 8.3-13.96 14.367-15.258 31-.975 12.49-2.005 13.99-12.317 17.93-3.799 1.451-8.197 3.725-9.775 5.052-4.216 3.548-11.439 6.457-17.612 7.094-4.745.49-5.678.962-7.393 3.736-3.434 5.557-5.661 6.887-12.822 7.657-4.884.525-9.285 1.957-16.205 5.272-8.42 4.034-10.636 4.651-19.5 5.428-9.323.818-10.914 1.303-23.5 7.158-21.777 10.131-34 13.456-41 11.153m15.54-2.673c3.278-.851 10.01-3.38 14.96-5.617 24.942-11.276 24.533-11.134 34.479-11.962 8.401-.7 10.66-1.337 19.198-5.42 7.004-3.35 11.366-4.782 15.794-5.183 5.894-.535 6.282-.747 10.577-5.773 4.247-4.972 4.735-5.244 10.293-5.748 6.094-.552 10.798-2.476 15.36-6.282 1.485-1.24 5.836-3.452 9.67-4.917 10.51-4.016 11.698-5.618 12.445-16.784 1.003-14.993 5.045-25.184 11.503-28.999C383.486 329.18 390 321.485 390 318.73c0-3.046-1.915-4.104-8.841-4.884-2.938-.33-8.426-2.023-12.195-3.76-8.97-4.135-10.52-3.683-15.184 4.425-7.857 13.661-27.226 34.883-40.45 44.32-8.382 5.981-19.836 9.983-52.6 18.378-31.682 8.118-34.963 9.612-40.798 18.568-2.262 3.471-7.352 9.21-11.311 12.755-8.67 7.758-11.717 12.612-9.557 15.222 2.284 2.762 11.066 6.398 15.476 6.408 2.222 0 6.722-.687 10-1.539m-13.79-5.531c-2.616-1.524-2.134-6.095 1.108-10.52 1.572-2.145 7.586-8.48 13.365-14.08 11.927-11.554 10.25-10.914 30.964-11.823 12.957-.568 13.744-.494 14.75 1.386 2.467 4.61.152 10.663-5.387 14.086-1.924 1.19-7.448 3.859-12.274 5.932-4.827 2.073-12.264 6.056-16.528 8.851-9.795 6.423-20.998 9.08-25.998 6.168m14.826-2.387c2.717-.806 7.816-3.492 11.332-5.968s10.697-6.203 15.96-8.283c11.937-4.719 17.435-9.403 16.952-14.444l-.32-3.338-15.5.346c-11.414.255-16.108.733-17.808 1.812-1.27.806-6.912 6.05-12.538 11.653-10.664 10.621-15.04 17.196-12.51 18.799 2.088 1.323 8.959 1.049 14.432-.577m119.52-48.798c-5.193-2.669-6.6-6.12-6.548-16.065.054-10.473 1.31-15 5.812-20.964 1.746-2.313 5.088-7.449 7.426-11.412 6.205-10.518 10.293-12.546 16.714-8.294 1.787 1.183 4.692 1.99 7.185 1.993 4.947.01 9.315 1.48 9.315 3.14 0 .65-4.093 5.274-9.096 10.275-11.974 11.97-12.4 12.834-12.101 24.51.262 10.237-.922 15.54-3.817 17.09-2.589 1.385-11.999 1.213-14.89-.273m15.032-2.388c.945-1.138 1.41-4.827 1.492-11.84.168-14.348 1.043-16.353 12.033-27.579 5.154-5.264 9.065-9.876 8.692-10.25-.373-.373-2.871-.678-5.551-.678-2.9 0-6.461-.81-8.794-2-2.156-1.1-4.798-2-5.871-2-2.286 0-6.369 4.563-9.29 10.384-1.137 2.264-3.887 6.5-6.112 9.415-4.705 6.163-6.742 12.91-6.691 22.169.057 10.578 3.196 13.934 13.092 13.997 4.046.025 6.013-.43 7-1.618m-11.146-4.381c-.599-1.119-.952-4.152-.785-6.741.362-5.618 2.194-6.474 6.708-3.137 3.886 2.873 4.402 4.417 2.625 7.854-2.284 4.417-6.707 5.464-8.548 2.024m6.041-3.009c.904-1.69.695-2.368-1.215-3.929-2.874-2.348-4.221-1.186-3.33 2.873.78 3.548 2.942 4.05 4.545 1.056M544.5 428.173c-1.65-.514-6.825-3.33-11.5-6.259-14.78-9.258-13.128-11.783 22.577-34.486 7.742-4.923 16.967-11.219 20.5-13.991 9.23-7.243 23.923-14.955 23.923-12.556 0 .465-2.812 2.074-6.25 3.576-3.437 1.502-10.525 5.916-15.75 9.81-5.225 3.892-14.9 10.478-21.5 14.636-21.502 13.546-30.525 20.867-30.471 24.726.02 1.497 2.48 3.507 9.217 7.534 8.487 5.072 9.74 5.519 16.388 5.855 4.08.206 8.86-.177 11.033-.883 8.993-2.922 33.017-13.37 35.083-15.257 1.826-1.668 2.25-1.762 2.25-.496 0 2.216-2.437 3.52-21 11.243-14.606 6.076-17.36 6.9-24 7.173-4.125.17-8.85-.11-10.5-.625M23.27 422.76c-1.777-.811-4.138-2.963-5.246-4.781-3.2-5.25-2.663-12.028 2.096-26.433 4.774-14.451 4.74-15.995-.654-29.024C17.56 357.915 16 352.983 16 351.56c0-4.908 3.105-9.08 16.78-22.55 18.91-18.626 22.348-24.896 28.425-51.84 3.471-15.39 5.516-20.403 10.078-24.705 4.99-4.707 23.304-15.715 33.767-20.298 5.198-2.276 14.177-6.786 19.955-10.021 11.581-6.486 36.523-18.59 50.447-24.483 16.046-6.791 25.238-5.863 41.4 4.18 9.754 6.06 16.211 12.678 20.124 20.627 4.492 9.124 6.035 15.738 6.696 28.7 1.248 24.476-5.078 34.603-31.172 49.902-20.291 11.897-33.437 23.555-47.053 41.726-8.959 11.957-19.211 21.92-38.064 36.99-22.26 17.795-36.818 26.603-57.383 34.722-20.998 8.29-39.49 11.554-46.73 8.248m21.522-2.155c17.58-3.575 42.052-14.115 58.708-25.285 12.257-8.22 33.92-25.591 44.26-35.49 4.687-4.487 11.72-12.424 15.63-17.637 14.281-19.04 26.383-29.762 47.984-42.511 14.61-8.624 22.189-15.353 26.664-23.679 3.138-5.838 3.433-7.154 3.787-16.904 1.096-30.165-7.344-45.763-31.816-58.8-9.86-5.253-17.35-6.333-26.161-3.771-8.33 2.421-39.465 16.838-54.382 25.181-7.273 4.068-17.44 9.25-22.595 11.514-5.154 2.266-14.944 7.535-21.755 11.71-16.647 10.205-17.308 11.23-22.728 35.239-5.57 24.673-10.395 33.248-28.084 49.908C22.495 341.2 18 347.029 18 351.22c0 1.512 1.65 6.957 3.666 12.1 4.518 11.522 4.734 16.694 1.098 26.35-3.775 10.023-4.755 14.266-4.736 20.5.034 11.297 7.74 14.301 26.764 10.433m5.234-16.74c-4.8-1.649-5.99-4.646-6.033-15.193-.048-11.701-1.85-15.68-11.127-24.56l-7.123-6.82.461-5.57c.575-6.933 2.719-9.741 16.871-22.109 6.757-5.904 11.154-10.605 12.628-13.5 1.244-2.442 3.843-12.091 5.777-21.441 6.192-29.94 5.612-28.302 12.17-34.42 8.812-8.222 16.638-12.8 27.812-16.272 5.602-1.74 12.18-4.592 14.883-6.452 4.982-3.426 6.312-3.9 20.41-7.282 6.25-1.5 9.773-3.056 14.5-6.408 3.435-2.435 8.65-5.635 11.591-7.112 5.858-2.942 18.767-6.554 23.424-6.554 5.367 0 14.747 5.976 24.294 15.479 13.714 13.65 18.495 24.847 15.03 35.202-4.216 12.605-22.06 29.434-44.787 42.238-8.019 4.518-10.531 7.448-18.298 21.341-14.8 26.47-20.178 32.037-52.226 54.046-7.598 5.218-16.057 11.354-18.799 13.636-11.8 9.824-31.125 15.302-41.458 11.752m23.126-3.631c3.658-1.145 8.708-3.54 11.22-5.322 2.514-1.782 9.196-6.58 14.85-10.663a2714 2714 0 0 1 21.75-15.5c6.309-4.442 15.309-11.927 20-16.633 7.325-7.349 9.791-10.797 17.482-24.447 10.204-18.111 12.99-21.675 19.54-24.994 16.91-8.568 37.811-26.779 43.78-38.143 4.851-9.234 4.195-15.456-2.764-26.224-8.353-12.923-25.21-26.136-33.343-26.136-8.55 0-25.1 6.308-32.263 12.298-4.768 3.987-10.352 6.328-20.664 8.662-7.032 1.591-11.125 3.147-14.638 5.564-4.29 2.951-15.493 7.475-18.517 7.477-2.96 0-13.983 6.438-21.323 12.45-6.435 5.27-8.447 7.546-9.191 10.398-1.465 5.61-4.779 20.384-7.511 33.485-2.94 14.097-5.465 18.87-13.329 25.202-15.285 12.307-21.712 20.704-20.517 26.81.344 1.764 3.013 5.188 7.014 9 9.172 8.74 10.574 11.86 11.077 24.654.42 10.667 1.033 12.526 4.66 14.115 3.121 1.367 15.27.267 22.687-2.053m3.463-35.098c-1.587-.475-4.062-2.243-5.5-3.928-2.135-2.502-4.227-3.454-11.397-5.182C48.687 353.366 46 351.415 46 346.06c0-4.196 2.043-8.886 7.79-17.888 6.96-10.901 10.169-18.513 11.245-26.67 1.872-14.192 2.795-18.109 5.646-23.957 3.649-7.486 14.049-17.89 22.244-22.255 6.098-3.248 6.656-3.357 13.995-2.745l7.643.637 1.727-2.923c3.125-5.29 7.203-7.888 13.45-8.566 9.064-.985 9.392-1.118 19.338-7.855 10.798-7.314 15.069-9.61 24.454-13.142 8.45-3.18 11.778-3.17 18.25.054 10.669 5.317 19.382 18.627 20.061 30.647.558 9.88-.363 13.018-6.026 20.524-9.622 12.755-12.408 15.085-25.593 21.404-13.197 6.325-16.213 9.196-16.22 15.437-.013 10.424-20.954 36.33-35.686 44.146-11.83 6.276-36.614 13.426-45.678 13.178-1.727-.047-4.438-.475-6.025-.95zm17.7-3.397c9.813-1.878 24.6-6.87 31.953-10.79 15.097-8.047 33.597-31.217 35.394-44.33.343-2.496 1.51-5.667 2.594-7.045s7.484-5.154 14.222-8.391c10.488-5.039 12.996-6.722 17.434-11.698 14.506-16.265 16.94-25.415 10.366-38.955-5.268-10.85-15.433-19.358-23.126-19.358-5.456 0-18.922 5.92-29.532 12.982-13.744 9.147-14.158 9.337-22.06 10.094-7.376.706-6.637.223-14.213 9.297-2.074 2.485-2.442 2.557-10.032 1.972-6.748-.52-8.46-.312-11.919 1.453-10.652 5.434-21.393 17.546-24.778 27.94-.853 2.619-1.99 9.187-2.529 14.594-1.104 11.107-3.492 17.172-11.957 30.367-11.284 17.59-10.728 19.847 5.868 23.816 5.802 1.388 8.188 2.516 10.538 4.985 1.67 1.755 3.695 3.45 4.5 3.767 2.646 1.04 9.664.756 17.278-.7M83.7 352.137c-2.091-.526-6.203-2.092-9.137-3.48-8.215-3.886-8.605-5.676-4.758-21.837 1.721-7.232 3.617-16.524 4.214-20.649 3.194-22.09 5.351-28.483 11.406-33.8 3.857-3.385 14.54-7.173 20.432-7.244 8.993-.107 12.409-1.523 17.9-7.42 5.688-6.105 10.164-8.536 15.72-8.536 2.897 0 4.621-.993 9.475-5.455 3.577-3.288 9.57-7.265 15.088-10.01 5.035-2.506 10.11-5.227 11.28-6.046 3.06-2.143 7.055-1.84 12.572.956 7.02 3.557 10.874 7.157 13.762 12.856 6.058 11.956-.486 30.35-12.623 35.476-1.941.82-7.752 2.542-12.912 3.828s-10.468 3.05-11.797 3.92c-3.247 2.128-5.882 6.65-8.436 14.475-6.065 18.584-18.948 36.59-30.565 42.717-15.842 8.356-32.67 12.5-41.621 10.249m17.476-2.423c8.59-2.238 23.248-8.888 28.62-12.985 9.148-6.976 17.208-19.412 23.695-36.558 1.977-5.225 4.138-10.58 4.802-11.901 1.997-3.97 7.632-6.847 18.708-9.552 13.387-3.27 17.39-5.955 21.822-14.638 3.856-7.555 4.462-15.4 1.647-21.334-3.034-6.392-14.126-14.575-19.759-14.575-3.974 0-23.78 10.863-29.21 16.021-6.091 5.787-8.31 6.979-12.984 6.979-4.93 0-8.253 1.969-13.25 7.85-4.823 5.678-7.072 6.602-19.626 8.07-20.56 2.401-24.94 7.67-29.162 35.08-.89 5.775-2.961 16.289-4.603 23.364-1.642 7.076-2.848 14.04-2.68 15.475.215 1.839 1.488 3.286 4.305 4.892 9.06 5.167 17.833 6.375 27.675 3.812M85.13 346.23c-10.197-2.593-10.75-10.417-3.153-44.56 4.379-19.677 6.571-25.211 11.031-27.846 3.455-2.04 21.764-4.154 35.992-4.154 10.961 0 15.948 1.89 19.75 7.485 4.215 6.201 2.366 17.778-5.432 34.015-3.807 7.926-5.841 10.742-12.283 17-8.481 8.24-16.358 13.407-24.763 16.244-6.442 2.175-16.377 3.028-21.142 1.816m17.329-2.591c3.233-.842 8.604-2.98 11.935-4.75 8.15-4.331 22.261-18.38 26.336-26.219 4.894-9.417 8.27-20.57 8.27-27.323 0-5.542-.244-6.185-3.414-8.968-5.246-4.606-9.447-5.573-21.01-4.838-28.128 1.788-32.027 2.724-34.947 8.388-1.666 3.234-10.248 41.29-11.104 49.241-.787 7.312.413 11.027 4.442 13.75 4.028 2.722 10.836 2.973 19.492.719m-11.834-7.877c-4.935-1.837-5.599-2.543-6.612-7.034-1.14-5.055.472-15.61 4.546-29.764 4.317-14.998 5.53-17.265 10.712-20.034 3.92-2.095 5.486-2.26 21.397-2.26 16.765 0 17.229.057 19.735 2.41 3.694 3.469 4.112 7.619 1.718 17.085-1.53 6.049-3.218 9.781-6.487 14.341-6.305 8.793-19.525 21.286-25.166 23.781-6.118 2.706-14.8 3.352-19.843 1.475m20.196-3.499c5.161-2.635 19.361-16.597 23.953-23.55 3.764-5.7 7.226-16.02 7.226-21.538 0-2.233-.782-4.75-1.91-6.144-1.831-2.266-2.526-2.374-17.195-2.686-16.614-.353-22.39.594-25.808 4.233-2.405 2.56-5.22 10.325-8.55 23.592-4.713 18.766-4.338 24.826 1.706 27.569 4.608 2.091 15.06 1.342 20.578-1.476m-11.366-15.547c-2.592-2.592-2.677-3.02-2.275-11.426.532-11.126 2.625-14.899 10.366-18.686 4.579-2.24 6.197-2.552 10.198-1.962 9.2 1.356 14.293 5.552 14.234 11.728-.036 3.778-3.464 10.19-7.086 13.251-4.148 3.508-14.429 8.437-19.216 9.214-2.928.475-3.987.115-6.221-2.12M114 314.106c16.53-7.79 21.332-20.703 9.67-25.998-11.998-5.447-23.4 1.596-25.029 15.46-.658 5.597.532 11.46 2.59 12.767 2.384 1.513 6.268.835 12.77-2.23m61-44.87c-8.816-2.692-15.183-8.32-16.986-15.013-1.807-6.71-.152-9.015 11.423-15.916 8.207-4.893 13.499-5.424 19.64-1.972 4.885 2.745 7.325 7.674 7.343 14.836.023 8.465-2.161 14.871-5.831 17.11-3.214 1.959-10.78 2.423-15.589.955m14.71-2.681c2.528-1.576 5.29-9.721 5.29-15.598 0-8.963-5.517-14.775-14.031-14.782-5.942-.01-19.113 7.516-20.956 11.965-4.745 11.456 18.119 25.634 29.698 18.415M173 257.493c-6.353-3.26-7.281-5.813-4.03-11.081 4.408-7.142 14.681-9.68 19.535-4.827 2.926 2.926 3.926 6.475 3.086 10.955-1.409 7.509-9.44 9.648-18.59 4.953m14.928-1.957c4.044-5.141 1.98-12.518-4.103-14.656-4.95-1.74-15.32 5.802-14.631 10.64.395 2.778 7.935 6.651 12.945 6.651 2.823 0 4.214-.633 5.789-2.635m359.944 162.659c-6.856-1.22-8.872-2.596-8.872-6.056 0-4.476 5.765-10.108 19.47-19.023 6.617-4.303 15.063-10.12 18.77-12.927s8.882-6.178 11.5-7.492c5.484-2.753 11.26-4.147 11.26-2.717 0 .533-1.672 1.282-3.715 1.665-4.933.926-7.835 2.506-15.773 8.59-3.657 2.804-10.973 7.794-16.258 11.09-17.918 11.175-26.047 18.98-23.26 22.337.638.77 3.713 1.94 6.833 2.6 15.824 3.347 39.053-6.28 49.305-20.432 2.477-3.419 2.868-3.65 2.868-1.7 0 3.272-10.564 13.041-18.718 17.31-11.37 5.954-23.793 8.465-33.41 6.755M0 410.312c0-.537 1.129-3.224 2.509-5.97 3.514-6.998 9.505-25.683 10.173-31.73.526-4.765.372-5.218-2.638-7.75-2.108-1.775-4.363-2.691-6.62-2.691-1.883 0-3.424-.45-3.424-1 0-1.711 6.341-1.09 9.686.95 4.353 2.654 5.664 5.48 4.953 10.672-.716 5.222-8.144 28.421-10.746 33.56C2.012 410.07 0 412.115 0 410.313m.032-17.204c-.018-.86 1.036-3.784 2.341-6.5 4.418-9.19 4.252-15.437-.408-15.437-1.08 0-1.965-.45-1.965-1 0-1.561 3.684-1.174 5.429.571 1.622 1.623 1.946 3.142 1.58 7.416-.467 5.441-6.89 19.206-6.977 14.95M0 343.38c0-.436 4.388-2.869 9.75-5.408 19.32-9.148 29.425-21.999 41.52-52.801 3.103-7.905 5.666-17.127 8.199-29.5 10.325-50.447 14.385-58.41 41.15-80.72 6.1-5.086 11.026-10.309 14.881-15.78 6.918-9.816 11.092-13.02 21.765-16.708 10.521-3.635 14.034-7.031 16.602-16.049a9589 9589 0 0 0 3.74-13.175C162.21 96.97 176.046 92.588 200 99.808c13.272 4 27.685 3.883 56.5-.456 11.55-1.74 28.65-3.575 38-4.08 20.542-1.108 30.043-3.28 44-10.06 22.665-11.01 30.478-23.848 30.457-50.041-.008-10.564-1.35-27.733-2.535-32.457-.367-1.461-.21-2.543.367-2.543 1.59 0 3.246 11.871 3.883 27.829 1.16 29.068-3.737 41.381-21.062 52.969-15.69 10.495-30.708 14.906-55.173 16.208-9.384.5-26.71 2.302-38.5 4.006-35.623 5.148-40.051 5.105-59.894-.586-17.488-5.016-29.677-2.069-34.946 8.45-.998 1.993-2.613 6.999-3.588 11.124-3.687 15.596-5.964 18.42-18.899 23.432-11.06 4.286-15.114 7.497-22.163 17.557-3.762 5.369-8.513 10.287-15.549 16.095-25 20.639-29.368 29.255-39.457 77.836-4.078 19.641-7.403 29.937-14.5 44.912-10.288 21.71-19.496 31.674-36.694 39.71C-.173 344.583 0 344.521 0 343.38m452.331-7.146c-2.293-1.04-7.468-4.107-11.5-6.813s-10.48-6.758-14.33-9.006c-9.213-5.378-16.68-11.022-23.853-18.028-12.597-12.304-11.963-16.656 4.256-29.203 4.237-3.277 10.074-8.881 12.972-12.453 7.556-9.313 23.952-24.604 29.788-27.78 7.868-4.283 15.535-5.93 21.568-4.637 7.365 1.58 12.272 6.907 17.194 18.663 4.524 10.808 7.957 14.377 21.574 22.424 13.54 8.002 16.783 10.543 19.607 15.362 2.35 4.009 2.598 5.295 2.174 11.226-.721 10.078-4.561 16.47-12.27 20.421-2.193 1.125-10.643 4.206-18.777 6.847s-17.428 6.406-20.652 8.364c-11.198 6.803-19.784 8.23-27.75 4.613m25.268-6.328c4.778-2.801 12.71-6.187 19.48-8.316 17.254-5.424 19.441-6.289 23.676-9.357 4.97-3.6 7.523-8.913 8.053-16.76.679-10.052-.875-11.76-23.09-25.407-11.74-7.213-14.645-10.254-18.66-19.538-5.07-11.727-7.851-15.507-13.453-18.283-4.541-2.25-5.299-2.341-10.48-1.254-3.073.644-7.925 2.315-10.783 3.713-5.889 2.882-20.924 16.677-29.837 27.376-3.275 3.933-8.666 9.236-11.98 11.785-13.262 10.202-15.557 13.409-13.058 18.241 2.956 5.716 17.276 17.5 34.104 28.065 24.498 15.38 23.83 15.066 31.448 14.74 5.712-.245 7.518-.865 14.58-5.005m-25.87-5.167c-6.697-2.363-17.294-8.99-35.729-22.341-10.476-7.588-11.467-9.417-8.079-14.905 1.08-1.748 6.593-7.148 12.253-12s13.224-11.56 16.809-14.907c8.338-7.786 10.81-9.415 14.29-9.415 4.464 0 8.184 2.469 19 12.61 9.095 8.528 11.428 10.118 23.485 15.998 13.91 6.783 19.637 10.98 22.638 16.592 3.466 6.479-1.785 11.698-18.896 18.777-11.72 4.85-33.521 12.026-36.458 12.002-1.398-.012-5.589-1.096-9.312-2.41m29.017-5.14c19.087-6.75 29.464-11.7 32.774-15.633 3.168-3.766 3.122-4.529-.581-9.564-2.524-3.431-5.662-5.48-17.864-11.66-12.667-6.416-16.209-8.766-24.548-16.285-17.95-16.184-19.27-16.525-28.863-7.466-3.39 3.2-10.664 9.656-16.164 14.345C413.11 283.9 408 289.492 408 292.49c0 1.735 1.563 3.337 6.25 6.404 3.438 2.25 10.075 6.878 14.75 10.285 14.54 10.595 25.302 15.924 32.246 15.968 2.06.013 10.835-2.483 19.5-5.548m-28.246-3.363c-4.999-1.217-8.896-3.686-13.217-8.374-4.577-4.966-7.283-9.612-7.283-12.506 0-7.344 15.029-12.6 25-8.743 5.319 2.057 22.082 9.362 25.73 11.212q5.255 2.668 3.778 7.32c-1.155 3.641-22.114 12.268-28.968 11.924-1.122-.056-3.39-.431-5.04-.833m13.95-2.594c8.349-2.175 17.977-7.46 18.35-10.073.356-2.49-2.026-4.231-9.8-7.164-3.025-1.14-8.958-3.685-13.184-5.654-9.201-4.286-15.806-4.731-22.454-1.513-6.891 3.336-7.007 7.408-.445 15.708 4.492 5.684 12.518 10.225 18.07 10.225 1.976 0 6.235-.688 9.463-1.529M0 324.379c0-.436 3.038-2.554 6.75-4.708 18.389-10.665 34.065-35.658 36.331-57.921 1.525-14.979 9.016-38.408 18.775-58.722 6.325-13.165 9.334-17.15 17.833-23.62 10.58-8.054 26.16-24.598 30.067-31.93 4.234-7.945 5.86-9.206 15.435-11.98 4.513-1.307 8.955-3.054 9.87-3.881 2.176-1.97 4.146-6.735 7.834-18.946 1.661-5.5 4.335-12.067 5.942-14.594 2.754-4.33 3.599-4.857 14.792-9.223 20.593-8.031 24.955-8.218 39.371-1.686 4.675 2.119 10.975 4.148 14 4.51 6.029.722 18.066-.656 30.5-3.491 4.79-1.093 14.038-2.044 23.049-2.372 36.12-1.315 56.7-7.713 71-22.07 5.726-5.75 6.172-6.554 8.36-15.074 5.64-21.959 5.881-25.175 2.591-34.5-1.767-5.01-3.122-14.829-1.885-13.67.487.457 1.387 3.382 2 6.5.613 3.119 1.846 8.337 2.74 11.596 1.887 6.87 1.376 11.408-3.243 28.808-3.27 12.32-5.552 15.885-14.264 22.3C322 81.37 303.164 86.382 270 87.761c-9.037.375-18.854 1.405-23.544 2.47-21.032 4.772-32.163 4.397-44.465-1.498-12.736-6.104-18.642-5.864-37.481 1.526-13.55 5.315-14.826 6.922-21.018 26.49-5.188 16.394-5.904 17.277-16.101 19.838-9.761 2.452-12.035 3.945-15.016 9.856-5.074 10.063-16.675 22.788-31.078 34.087-8.722 6.842-10.72 9.41-16.821 21.633C54.75 221.641 45 251.364 45 261.528c0 13.238-11.207 36.545-23.723 49.337-2.627 2.685-8.28 7.002-12.562 9.594C.53 325.413 0 325.651 0 324.379m242.683-13.669c-3.637-3.636-.682-11.047 10.182-25.539 9.709-12.951 10.628-15.933 10.632-34.5.003-11.838-.38-16.16-1.819-20.5-3.076-9.29-9.512-18.972-18.611-28-22.837-22.659-41.82-24.72-73.51-7.984-4.98 2.63-15.582 7.608-23.557 11.06s-24.033 11.122-35.685 17.044c-24.458 12.432-28.283 13.786-32.016 11.34-2.234-1.464-2.478-2.182-2.044-6.028.27-2.402 2.09-7.73 4.041-11.84 6.87-14.465 13.616-22.679 31.238-38.034 4.381-3.818 11.578-10.458 15.993-14.755 8.857-8.623 11.422-9.803 21.315-9.803 13.599 0 16.784-4.118 19.563-25.29.78-5.935 1.928-11.406 2.552-12.158 4.598-5.54 17.762-6.217 41.257-2.119 20.487 3.574 18.266 3.705 66.286-3.909 8.8-1.395 21.85-2.97 29-3.5 14.972-1.11 24.688-3.537 36-8.994 19.234-9.279 32.649-23.694 39.265-42.195 2.305-6.447 2.612-8.788 2.539-19.335-.07-9.977-.594-13.938-3.11-23.5-2.758-10.482-3.153-13.293-1.658-11.798.294.295 1.902 5.882 3.572 12.417 7.427 29.055 2.131 51.098-16.833 70.062-14.802 14.803-35.727 23.535-60.775 25.36-7.15.522-19.975 2.061-28.5 3.422a2734 2734 0 0 1-30.814 4.701l-15.315 2.228-17.685-2.926c-18.833-3.115-34.028-3.767-37.936-1.627-3.74 2.048-5.035 5.215-6.196 15.161-2.406 20.608-7.083 26-22.554 26-7.261 0-12.144 1.466-13.534 4.064-.546 1.02-8.754 8.77-18.24 17.22-18.476 16.462-23.172 21.546-29.24 31.661-7.882 13.135-10.592 23.252-6.57 24.528 3.238 1.028 6.878-.415 27.584-10.936 11-5.589 26.975-13.236 35.5-16.994s21.3-9.726 28.388-13.264c24.474-12.214 38.533-13.302 55.44-4.29 17.32 9.231 32.977 28.646 37.688 46.732 2.767 10.626 1.483 32.059-2.443 40.773-.993 2.203-4.732 7.906-8.31 12.673-7.44 9.915-11.054 16.758-10.587 20.051.293 2.064.823 2.27 5.542 2.147 4.004-.104 7.467-1.23 14.888-4.84 18.15-8.83 28.71-22.736 34.949-46.025 1.473-5.5 3.581-11.8 4.684-14 6.313-12.594 20.89-27.693 32.758-33.929 11.6-6.095 14.634-9.542 26.031-29.571 10.182-17.893 22.078-22.96 58.708-25.002 19.618-1.094 23.402-1.73 50.264-8.445 21.696-5.423 36.306-7.278 66-8.38 24.633-.914 26.349-1.388 34.28-9.487 8.885-9.072 19.61-34.71 20.499-49.002.43-6.908.158-8.63-2.332-14.816l-2.818-7 2.254-19.184c1.24-10.551 2.516-23.796 2.836-29.434.327-5.754 1.02-10.25 1.58-10.25 1.28 0 .263 16.124-2.327 36.886-2.542 20.371-2.489 22.743.661 29.623 2.365 5.165 2.578 6.578 2.097 13.871-1.005 15.23-10.94 39.413-20.383 49.612-8.58 9.267-11.72 10.217-36.759 11.123-30.479 1.103-40.484 2.381-65.588 8.38-29.825 7.128-31.735 7.443-51.5 8.506-25.138 1.352-39.005 4.847-46.658 11.76-2.143 1.937-7.372 9.377-11.62 16.535-8.926 15.042-13.712 20.408-21.878 24.53-9.075 4.582-17.716 11.596-24.174 19.624-8.446 10.498-11.617 16.595-15.052 28.942-3.65 13.116-8.357 23.258-14.127 30.434-10.426 12.968-37.91 26.112-43.308 20.713M0 307.873c0-1.379 11.993-17.384 19.252-25.693 7.413-8.483 15.905-29.04 25.41-61.509 10.73-36.659 13.507-41.585 32.515-57.69 12.262-10.391 16.342-15.161 21.733-25.409 3.763-7.155 7.854-9.933 16.11-10.94 12.707-1.548 16.03-5.201 19.947-21.93 1.155-4.933 3.244-10.921 4.643-13.308 3.412-5.823 12.33-12.188 23.13-16.511 17.464-6.99 25.9-6.98 43.465.052 9.208 3.685 9.427 3.72 23.295 3.68 13.086-.039 14.615-.251 23.422-3.256l9.422-3.214 19.578.143c18.782.137 19.904.034 27.578-2.541 13.353-4.48 21.156-10.74 25.093-20.13 1.452-3.465 1.566-6.721.938-26.696-.453-14.383-.363-22.75.244-22.75 1.384 0 2.587 43.617 1.319 47.834-3.474 11.554-12.302 18.765-29.45 24.052-5.985 1.846-9.332 2.114-26.396 2.114-19.079 0-19.768.073-29.144 3.08-7.299 2.34-12.124 3.2-20.104 3.579-11.41.543-16.872-.528-32-6.274-10.805-4.103-21.093-3.914-33.362.614-10.55 3.894-19.912 9.94-24.225 15.646-1.847 2.443-3.852 6.96-4.883 11-4.122 16.156-4.724 17.75-7.92 20.946-3.229 3.228-7.112 4.68-15.642 5.846-7.312 1-10.321 3.515-15.022 12.551-3.529 6.782-5.803 9.555-13.793 16.817-26.807 24.364-27.881 26.167-39.741 66.695-8.933 30.524-17.806 51.206-25.878 60.321-2.279 2.574-6.34 7.604-9.026 11.179C3.388 305.651 0 309.424 0 307.873m0-14.348c0-1.04 1.856-4.132 4.125-6.872 12.58-15.193 17.692-25.957 30.857-64.982 14.713-43.614 21.512-56.328 35.032-65.51 8.045-5.463 11.513-10.03 13.579-17.879 3.887-14.774 6.163-17 25.655-25.083 4.262-1.767 8.087-3.734 8.5-4.37s.977-6.969 1.252-14.07l.5-12.913 6.996-4.088c3.98-2.325 10.768-7.823 15.747-12.753 10.656-10.552 15.176-12.735 22.48-10.857 2.627.676 15.802 1.827 29.277 2.56 13.475.732 27.425 1.839 31 2.46 8.068 1.402 11.863.723 19.5-3.49 8.397-4.632 10.569-4.862 23.034-2.44 20.216 3.927 32.794 1.497 42.257-8.164 5.814-5.935 5.99-6.873 3.639-19.403-.429-2.286.169-4.099 2.51-7.619 1.691-2.54 3.811-7.602 4.711-11.25 1.089-4.412 2.127-6.631 3.101-6.631 1.09 0 1.298.706.814 2.75-1.971 8.334-3.804 13.322-6.184 16.828-2.46 3.625-2.576 4.245-1.522 8.186 2.357 8.815 1.26 13.116-4.919 19.295q-15.013 15.014-43.35 9.032c-5.45-1.15-11.15-2.091-12.665-2.091-1.516 0-6.057 1.734-10.09 3.852-9.573 5.028-11.816 5.365-23.516 3.531-5.4-.846-19.27-1.911-30.82-2.368s-23.387-1.363-26.305-2.017-6.455-.899-7.86-.546-6.94 4.836-12.297 9.963c-5.475 5.24-12.597 10.918-16.264 12.969-6.001 3.356-6.575 3.97-7.168 7.68-.355 2.217-.348 7.592.015 11.945.896 10.743.376 11.384-14.541 17.915-13.33 5.836-17.271 9.246-19.16 16.576-3.598 13.966-6.146 17.863-16.109 24.628-12.79 8.686-20.047 22.52-34.815 66.372-11.721 34.802-16.227 44.739-26.428 58.28C1.926 294.424 0 296.351 0 293.525m262.5-.998c-2.14-2.14-1.484-4.531 3.491-12.72 2.208-3.634 5.216-10.101 6.687-14.372 2.284-6.635 2.665-9.363 2.623-18.764-.113-25.078-7.268-42.267-22.786-54.744-6.539-5.257-20.322-12.596-33.3-17.73-7.5-2.968-9.016-3.233-16-2.799-4.492.28-10.888 1.562-15.31 3.068-8.329 2.837-39.26 16.788-61.675 27.816-7.85 3.862-15.786 7.267-17.638 7.568-6.316 1.025-9.673-5.753-6.188-12.492 1.798-3.477 9.922-11.107 20.096-18.874 4.4-3.359 9.779-7.953 11.953-10.21l3.953-4.103h8.685c7.394 0 9.63-.424 15.047-2.85 3.5-1.569 7.578-3.35 9.064-3.957 3.705-1.517 5.338-5.144 7.216-16.024 3.314-19.203 7.76-22.077 25.656-16.582 8.065 2.476 9.134 2.562 24.926 1.993 17.033-.614 28.552-2.21 35.5-4.919 6.633-2.586 11.122-3.447 32-6.139 23.273-3.001 38.596-6.246 46.917-9.936 17.236-7.643 39.812-27.749 47.257-42.086 2.284-4.4 4.867-10.765 5.74-14.144 2.407-9.324 2.044-23.75-.914-36.356-2.66-11.334-3.005-13.957-1.638-12.45 2.045 2.255 5.434 19.538 5.872 29.95.553 13.133-1.095 21.517-6.307 32.076-8.125 16.46-32.195 37.586-51.741 45.413-9.717 3.891-22.256 6.449-47.186 9.624-13.019 1.659-22.577 3.43-27.384 5.074-10.472 3.583-20.389 5.141-37.616 5.912-14.216.636-15.503.533-24.635-1.964-10.445-2.856-14.871-3.237-18.025-1.55-2.854 1.528-5.572 8.25-6.863 16.97-1.925 13.008-3.263 15.346-9.977 17.435-1.375.427-5.243 2.067-8.597 3.644-5.118 2.406-7.377 2.866-14.075 2.866-7.32 0-8.18.216-10.404 2.615-1.333 1.438-6.249 5.583-10.924 9.21-19.18 14.88-23 19.007-23 24.843 0 7.112 4.501 6.976 19.161-.578 6.309-3.25 14.366-7.125 17.905-8.611s13.41-5.977 21.934-9.98c23.996-11.265 31.718-13.792 42.5-13.905 8.547-.09 9.575.143 20.42 4.621 37.496 15.482 52.056 35.523 52.154 71.785.041 15.092-2.016 21.796-12.184 39.702-1.938 3.413-2.145 4.442-1.106 5.482 1.04 1.039 2.1.844 5.65-1.04 8.884-4.712 13.298-12.785 20.116-36.78 8.614-30.322 11.737-34.73 36.3-51.236 10.162-6.829 19.202-13.675 20.9-15.83 1.647-2.09 4.638-7.072 6.647-11.073 8.91-17.745 18.055-22.6 45.603-24.21 8.869-.52 21.062-2.006 28.5-3.474 7.15-1.412 17.05-3.004 22-3.537 4.95-.534 19.125-3.262 31.5-6.063 22.035-4.988 22.965-5.11 45-5.924 23.29-.86 27.68-1.564 34.581-5.547 4.352-2.512 5.322-4.095 12.558-20.47 3.675-8.317 4.252-10.626 4.64-18.544.407-8.336.162-9.878-3.125-19.703-6.027-18.012-6.76-21.63-7.351-36.336-.574-14.257.29-31.417 1.581-31.417.388 0 .52 8.213.294 18.25-.492 21.876.47 29.105 6.016 45.25 4.594 13.372 5.838 23.346 3.88 31.123-1.775 7.046-10.794 27.448-13.343 30.18-2.772 2.972-8.207 5.806-13.892 7.245-2.386.604-14.464 1.481-26.839 1.95-22.018.832-22.981.96-45 5.957-12.375 2.809-25.425 5.36-29 5.667-3.575.308-13.475 1.897-22 3.531-9.486 1.818-21.513 3.317-31 3.863-8.525.49-17.3 1.402-19.5 2.025-10.151 2.876-18.125 10.29-24.344 22.633-2.169 4.304-5.598 9.524-7.621 11.6s-10.734 8.425-19.357 14.108-17.111 11.86-18.863 13.726c-7.59 8.084-11.037 16.076-19.786 45.886-3.85 13.118-5.78 17.051-11.443 23.328-3.174 3.518-9.662 7.678-11.975 7.678-.532 0-1.708-.74-2.612-1.644m299.681-11.853c-1.08-1.373-2.753-5.76-3.717-9.75-.965-3.99-3.7-12.485-6.077-18.88-8.334-22.411-7.674-24.156 10.134-26.784 3.861-.57 13.688-3.333 21.838-6.141s15.078-4.845 15.396-4.527c.852.853 1.125.745-17.255 6.833-9.35 3.097-19.818 5.927-23.262 6.288-3.685.387-7.174 1.396-8.479 2.452-2.088 1.691-2.15 2.111-1.064 7.286.633 3.02 2.962 10.605 5.175 16.856 2.213 6.25 4.958 14.616 6.099 18.59 2.453 8.545 4.225 10.025 9.798 8.186 2.018-.666 6.1-3.506 9.072-6.311 9.146-8.634 14.09-16.662 19.464-31.601.296-.825.575-.231.618 1.32.145 5.173-5.606 16.812-12.196 24.68-10.971 13.1-20.804 17.528-25.544 11.503M.001 276.866c0-1.79 6.71-12.68 13.365-21.69 4.818-6.523 8.852-18.777 17.61-53.505 9.024-35.774 10.55-38.719 25.572-49.315 4.924-3.473 10.693-7.973 12.822-10 4.98-4.743 8.606-12.387 8.626-18.185.036-10.617 3.004-14.592 15.4-20.625 9.936-4.836 10.227-5.211 10.895-14.033.845-11.183 3.451-15.59 12.988-21.968 4.216-2.819 12.045-9.27 17.399-14.337 15.067-14.26 20.334-16.21 35.374-13.098 17.425 3.605 32.352 5.406 45.448 5.484 11.971.07 14.187-.229 28-3.786 16.198-4.171 15.538-4.14 43.142-1.998 4.478.348 9.308.34 10.732-.018 3.691-.926 5.284-4.885 5.882-14.621.537-8.743 5.085-25 6.993-25 1.092 0 .89.854-2.233 9.429-1.3 3.572-2.495 10.122-3.004 16.48-.815 10.188-.956 10.652-4.089 13.451-3.218 2.875-3.32 2.894-12.334 2.248-24.252-1.736-32.014-1.769-37.589-.159-3.025.873-10.675 2.745-17 4.16-9.904 2.213-12.888 2.481-21.5 1.93-12.523-.804-29.036-3.044-41.88-5.683-15.566-3.199-19.418-1.77-34.923 12.957-5.65 5.366-12.787 11.176-15.861 12.91C110.16 73.357 106 80.334 106 91.104c0 2.86-.468 6.074-1.04 7.143s-4.734 3.787-9.25 6.04C83.307 110.476 80 114.298 80 122.44c0 2.402-.712 6.766-1.582 9.697-1.864 6.274-8.235 13.183-18.418 19.972-7.651 5.102-13.357 10.324-16.095 14.733-3.053 4.914-6.443 15.794-12.395 39.784-6.679 26.92-11.8 43.373-14.614 46.95-1.164 1.48-5.442 7.703-9.506 13.828C3.325 273.528 0 277.786 0 276.866m564.186-5.184c-1.077-1.37-2.98-6.657-4.23-11.75-1.249-5.094-3.1-11.694-4.114-14.668-2.044-5.997-2.42-12.619-.773-13.636.59-.364 4.139-1.047 7.888-1.518 3.75-.47 8.78-1.759 11.18-2.863 9.834-4.524 17.533-7.343 20.362-7.456 2.786-.111 3.023.156 3.317 3.745.496 6.044-2.619 19.44-6.317 27.167-1.968 4.113-5.935 9.836-9.556 13.788-9.09 9.92-14.035 11.922-17.757 7.19m10.485-2.761c12.79-11.11 19.878-24.778 21.079-40.646l.56-7.397-2.405.553c-1.323.304-6.006 1.997-10.406 3.763-14.608 5.862-17.964 6.911-22.215 6.944-5.582.043-6.713 2.047-4.896 8.668 5.492 20.003 7.8 27.85 8.673 29.481 1.517 2.834 5.413 2.28 9.61-1.366m-5.512-8.59c-2.311-2.311-8.16-16.216-8.16-19.4 0-3.776 2.125-5.668 7.5-6.677 2.75-.517 7.475-2.092 10.5-3.502 9.835-4.58 12.598-3.11 11.75 6.25-.874 9.626-8.486 21.597-15.409 24.23-3.417 1.299-4.077 1.203-6.181-.901m9.206-4.727c6.352-6.169 11.96-19.785 9.652-23.433-.837-1.322-1.486-1.293-5.483.25-7.624 2.942-12.897 4.694-15.91 5.286-2.704.531-2.843.798-2.345 4.512.29 2.17 1.898 6.873 3.572 10.45 3.6 7.692 5.166 8.13 10.514 2.935M.05 259.594c-.027-1.143 1.127-4.968 2.566-8.5C6.32 241.997 10 226.84 10 220.677c0-6.18-2.436-10.005-7.012-11.01C1.345 209.308 0 208.59 0 208.072c0-.992 4.3-.24 7.24 1.267.957.49 2.476 2.315 3.375 4.055 2.012 3.89 1.421 12.445-1.676 24.27-2.416 9.224-8.814 25.009-8.889 21.93m.336-17.923c.211-2.2.939-8.181 1.616-13.292 1.13-8.52 1.085-9.455-.54-11.25-1.626-1.797-1.634-1.958-.092-1.958.924 0 2.1 1.107 2.615 2.46 1.139 2.996-.353 17.1-2.49 23.54L0 245.671zm281.893-23.75c-1.139-1.238-4.766-7.65-8.06-14.25-3.293-6.6-7.84-14.463-10.104-17.474-9.477-12.604-21.891-18.884-45.216-22.874-17.673-3.023-21.5-5.07-25.53-13.652-2.926-6.228-2.99-9.843-.222-12.422 3.59-3.345 9.915-3.601 26.562-1.077 17.46 2.648 28.408 2.397 44.291-1.015 5.225-1.122 17.866-3.595 28.09-5.496s21.7-4.41 25.5-5.576c9.069-2.783 25.222-11.086 38.91-20.001 18.413-11.993 43.098-33.244 46.608-40.125C407.326 55.692 412 30.256 412 15.574c0-5.561.353-6.846 2.455-8.948 1.35-1.35 2.991-2.455 3.648-2.455.656 0 5.74 1.535 11.295 3.412 5.556 1.877 11.76 3.692 13.787 4.033 2.026.342 6.751 2.05 10.5 3.798 5.829 2.718 7.973 3.183 14.815 3.217 7.338.037 8.443-.233 13.342-3.257 2.938-1.814 7.375-3.677 9.859-4.142 3.535-.66 5.681-1.994 9.883-6.144 6.494-6.414 8.33-5.95 2.309.584-4.866 5.278-8.569 7.499-12.506 7.499-1.491 0-4.776 1.299-7.3 2.886-10.122 6.367-17.43 6.527-31.739.693-4.828-1.969-9.752-3.579-10.944-3.579-1.19 0-6.574-1.596-11.962-3.546s-10.72-3.413-11.85-3.25c-2.703.39-3.244 2.633-4.531 18.796-1.192 14.972-4.714 32.157-8.04 39.232-2.237 4.76-8.955 11.3-26.683 25.974-18.11 14.99-44.12 30.212-60.185 35.22-4.59 1.432-15.616 3.942-24.5 5.58s-21.553 4.118-28.153 5.513c-17.628 3.726-29.355 4.149-43.88 1.581-13.467-2.38-21.968-2.65-25.62-.812-4.712 2.37-3.408 10.324 2.776 16.935 3.073 3.286 8.598 5.18 21.224 7.273 19.76 3.276 32.82 9.213 41.818 19.01 4.063 4.424 7.962 10.576 13.682 21.59 9.422 18.142 9.82 18.403 17.653 11.552 2.825-2.472 9.459-6.846 14.742-9.722 24.096-13.116 29.128-17.334 34.222-28.686 3.93-8.759 10.939-19.154 15.995-23.722 7.556-6.827 10.152-7.471 30.178-7.496 22.28-.027 35.19-1.413 44.21-4.744 3.85-1.422 22.165-7.642 40.7-13.823 22.974-7.661 36.34-12.676 42-15.76 5.264-2.867 10.662-4.949 14.758-5.69 9.848-1.782 13.752-4.443 17.563-11.972 2.62-5.176 3.061-18.527.992-30.033-.94-5.225-2.127-13.1-2.639-17.5-.997-8.577-.112-44.5 1.097-44.5.4 0 .696 11.138.659 24.75-.056 20.201.252 26.115 1.674 32.177 2.739 11.671 3.24 23.444 1.317 30.927-2.849 11.086-7.387 15.162-19.748 17.74-4.411.92-10.426 3.226-15.318 5.873-5.314 2.875-18 7.6-37.283 13.886-16.076 5.241-33.292 11.155-38.26 13.142-14.013 5.607-19.898 6.526-45.512 7.11-16.769.38-24.135.928-27.192 2.02-6.687 2.387-14.976 12.09-21.787 25.504-7.013 13.812-11.379 18.293-25.14 25.805-15.676 8.556-21.044 11.918-26.582 16.645-5.807 4.957-8.492 5.463-11.52 2.171M0 195.719c0-.249 2.1-1.897 4.667-3.663 6.853-4.715 15.074-13.437 25.009-26.532 7.134-9.403 10.68-13.035 18.766-19.223 10.772-8.243 15.876-14.04 17.526-19.905.576-2.049 2.386-11.6 4.021-21.225 5.007-29.46 6.233-32.877 16.857-46.972C94.666 47.825 101 36.625 101 33.173c0-1.213 2.417-7.673 5.37-14.354s5.69-13.61 6.08-15.398c.39-1.787 1.16-3.25 1.71-3.25 1.562 0 0 5.566-4.354 15.5-3.875 8.843-5.443 13.042-7.842 21-1.586 5.26-6.914 14.049-14.755 24.335-9.513 12.481-10.815 16.38-16.2 48.514-4.196 25.035-3.81 24.412-26.009 41.923-3.025 2.386-9.454 9.488-14.287 15.783s-11.358 14.057-14.5 17.25C9.178 191.624 0 197.989 0 195.719m282.408-1.382c-3.268-2.055-8.213-7.853-12.723-14.917-3.72-5.826-10.356-10.412-22.185-15.33-14.607-6.072-17.5-7.695-17.5-9.817 0-2.535 1.572-3.624 7.938-5.502 12.397-3.656 23.363-4.95 42.599-5.026l19.036-.074 9.714-5.796c18.122-10.813 24.529-12.698 30.724-9.038 8.127 4.8 5.918 16.625-5.893 31.545-3.767 4.757-8.234 11.106-9.928 14.108-3.95 6.999-9.657 11.624-20.781 16.84-10.594 4.968-16.532 5.819-21.001 3.008zm21.152-6.08c9.631-4.773 14.88-9.366 18.952-16.586 1.552-2.75 5.515-8.308 8.807-12.35 6.288-7.722 10.617-16.547 10.657-21.726.035-4.52-3.93-7.89-9.043-7.687-4.067.162-9.064 2.532-24.805 11.765l-8.373 4.91-20.127.13c-16.475.108-22.09.533-30.938 2.342-5.946 1.217-11.987 2.659-13.424 3.205-2.25.855-2.415 1.186-1.189 2.383.783.764 4.928 2.772 9.21 4.463 18.385 7.257 23.465 10.824 30.713 21.565 2.675 3.964 6.336 8.447 8.136 9.961 2.836 2.386 3.92 2.692 8.11 2.29 2.91-.28 8.216-2.14 13.314-4.666m-11.378-16.313c-7.957-2.075-6.795-15.773 1.339-15.773 1.175 0 4.577-1.773 7.558-3.94 14.145-10.283 18.928-13.103 24.755-14.596 13.757-3.524 13.552 4.669-.488 19.552-9.897 10.492-24.537 17.006-33.163 14.757m11.113-2.782c11.667-3.604 24.586-14.406 29.48-24.65 2.339-4.896 1.115-6.663-4.027-5.817-6.495 1.07-9.389 2.59-20.586 10.82-5.867 4.313-11.798 7.872-13.714 8.232-3.849.722-5.006 1.814-5.963 5.63-.528 2.104-.118 3.251 1.874 5.244 3.075 3.075 4.533 3.136 12.936.54M.026 178.42c.014-.413 2.208-2.23 4.874-4.038 8.314-5.637 36.215-33.95 41.877-42.497 6.285-9.486 8.516-16.289 15.162-46.236 3.351-15.098 5.876-24.194 7.472-26.918 1.326-2.262 6.237-8.178 10.914-13.146 7.394-7.855 8.921-10.118 11.715-17.36 1.766-4.582 4.476-10.733 6.021-13.671 1.546-2.938 3.115-7.377 3.488-9.863.373-2.487 1.077-4.521 1.565-4.521 1.98 0-.562 10.039-4.512 17.813-1.485 2.922-4.003 8.7-5.597 12.838-2.427 6.302-4.19 8.87-10.855 15.813C69.624 59.682 69.653 59.62 63.384 87.697c-8.865 39.707-9.97 41.885-33.384 65.807C11.61 172.294-.098 182.027.026 178.421M0 158.748c0-.838 1.955-3.48 4.345-5.869 2.389-2.39 5.82-7.113 7.624-10.498s7.364-11.212 12.357-17.395c12.095-14.979 14.828-19.77 19.79-34.685C54.127 60.21 58.32 52.596 72.55 38.671c8.132-7.958 10.578-11.02 11.98-15 .97-2.75 3.273-8.432 5.117-12.626S93 2.688 93 1.795 93.675.171 94.5.171c2.273 0 1.856 2.165-2.357 12.26-2.121 5.082-4.625 11.355-5.563 13.939-1.147 3.158-3.559 6.437-7.354 10-17.65 16.565-21.688 23.287-31.722 52.801-3.085 9.075-6.679 18.3-7.986 20.5-1.308 2.2-6.703 9.4-11.99 16-5.286 6.6-11.024 14.475-12.751 17.5-4.343 7.608-7.33 11.422-11.344 14.484C.835 159.635 0 159.902 0 158.748m.032-12.459c-.018-.76.842-2.795 1.91-4.523 2.703-4.374 26.642-57.35 30.318-67.095 2.84-7.527 3.057-9.122 3.673-27 .525-15.231 1.008-19.728 2.438-22.673 2.074-4.27 6.656-6.822 12.28-6.839 9.896-.03 21.932-5.506 28.734-13.072 5.244-5.832 7.598-5.96 2.964-.161-6.287 7.867-18.556 13.911-30.283 14.918-7.453.64-10.656 2.238-12.285 6.13-.62 1.483-1.458 11.022-1.86 21.197-.497 12.592-1.265 20.256-2.405 24-1.759 5.774-16.804 40.057-26.552 60.5C3.136 143.894.092 148.877.032 146.289M410 137.865c-1.925-.729-6.605-2.983-10.4-5.01-4.992-2.665-8.174-3.696-11.5-3.728-12.476-.119-20.58-7.745-18.084-17.016 1.38-5.126 8.696-12.478 20.515-20.616 4.97-3.422 13.974-11.225 20.194-17.5 9.465-9.55 11.637-12.342 13.858-17.822 4.296-10.595 7.02-15.291 11.08-19.103 8.662-8.128 11.535-8.545 25.572-3.704 16.905 5.83 26.733 4.307 41.996-6.51 9.108-6.453 14.044-8.685 19.206-8.685 5.634 0 6.997 1.8 9.17 12.113 1.193 5.656 1.48 12.073 1.225 27.387-.316 18.994-.459 20.25-2.832 24.979-3.327 6.627-8.495 9.282-20.468 10.518-9.843 1.015-12.32 2.552-17.011 10.558-2.016 3.44-3.779 4.745-10.717 7.935-10.276 4.724-16.01 6.51-20.898 6.51-5.685 0-8.62 1.503-15.498 7.937-10.064 9.415-26.865 14.994-35.408 11.757m19.071-3.841c6.49-2.478 9.667-4.455 14.946-9.3 6.879-6.313 11.644-8.553 18.193-8.553 4.235 0 12.194-2.66 20.497-6.852 4.718-2.382 6.802-4.16 8.73-7.449 4.478-7.642 6.201-8.652 17.462-10.232 18.146-2.547 20.581-5.25 22.24-24.682 1.468-17.192-.601-40.31-4.096-45.77-1.347-2.102-7.759-1.71-12.625.772-2.216 1.13-7.339 4.335-11.385 7.123-14.978 10.318-24.96 11.793-41.829 6.182-13.74-4.57-16.064-4.321-23.202 2.487-4.968 4.74-6.493 7.112-10.124 15.75-3.993 9.503-4.935 10.848-14.326 20.483-5.647 5.793-15.09 13.966-21.552 18.653-12.232 8.872-15.543 11.945-18.894 17.535-2.401 4.006-2.584 5.857-.934 9.478 1.836 4.03 7.113 6.663 15.167 7.566 5.672.636 9.105 1.793 15.968 5.383 10.742 5.62 14.27 5.815 25.764 1.426m-19.07-9.743c-8.029-2.602-19.61-8.714-21.427-11.308-.866-1.236-1.574-2.98-1.574-3.874 0-3.42 6.31-10.052 19.31-20.297 17.877-14.087 22.813-19.575 26.385-29.34 1.799-4.918 4.14-9.083 6.527-11.613 3.493-3.702 4-3.913 8.24-3.435 3.029.341 6.672 1.912 11.053 4.767 10.971 7.148 19.703 7.492 33.351 1.316 5.616-2.542 9.393-5.19 14.285-10.016 7.74-7.635 10.764-8.401 14.54-3.685 6.188 7.729 6.293 15.889.365 28.42-1.68 3.55-3.07 6.905-3.091 7.455-.055 1.486-4.095 5.991-7.07 7.884-1.434.911-6.142 2.334-10.462 3.16-8.724 1.67-10.487 2.59-16.708 8.723-4.957 4.887-26.009 15.43-37.225 18.642-5.7 1.633-8.022 2.97-12.5 7.193-8.714 8.22-13.488 9.415-24 6.008m16.114-2.995c1.312-1.037 4.116-3.523 6.233-5.525 4.835-4.574 7.61-6.006 15.697-8.1 9.921-2.57 31.35-13.854 35.047-18.455 3.61-4.491 7.759-6.466 17.885-8.512 9.386-1.896 12.392-4.72 17.461-16.407 4.897-11.287 5.427-15.699 2.59-21.558-1.222-2.525-3.159-5.093-4.303-5.705-1.842-.986-2.757-.402-8.02 5.13-4.82 5.064-7.76 7.087-15.573 10.715-9.575 4.445-9.688 4.47-19.139 4.137-9.406-.331-9.585-.385-16.927-5.085-9.01-5.768-12.693-6.17-16.38-1.79-1.37 1.629-3.27 5.116-4.223 7.75-4.823 13.328-7.72 16.67-29.515 34.06-18.341 14.634-20.237 18.414-11.52 22.967 14.774 7.717 26.033 10.057 30.687 6.378m-12.878-14.642c-7.7-5.186-7.524-5.602 6.943-16.33 12.417-9.207 17.147-15.212 20.742-26.33 1.612-4.985 4.78-8.813 7.293-8.813 1.138 0 4.368 1.963 7.177 4.363 10.79 9.217 14.646 10.236 25.108 6.637 3.197-1.1 6.842-2 8.1-2 2.748 0 5.4 3.461 5.4 7.048 0 4.704-5.117 7.961-23.458 14.936-13.745 5.227-21.09 8.962-30.48 15.5-14.423 10.04-18.264 10.755-26.825 4.99m16.063-.127c1.76-.91 6.575-4.006 10.7-6.882 9.21-6.419 16.48-10.087 29.585-14.926 14.618-5.396 20.73-8.735 21.877-11.948 2.17-6.084-1.873-7.309-13.462-4.078-8.488 2.367-12.506 1.566-19.062-3.8-2.83-2.316-6.492-5.315-8.136-6.663l-2.99-2.45-1.69 2.24c-.93 1.231-2.997 5.663-4.594 9.847-3.545 9.284-9.782 16.405-22.633 25.837-4.892 3.59-8.895 6.977-8.895 7.525s2.113 2.336 4.696 3.974c5.344 3.39 9.822 3.795 14.604 1.324M.084 108.631c-.046-1.122 2.79-7.872 6.3-15 3.512-7.128 6.885-14.76 7.495-16.96 1.648-5.94 1.35-15.594-.879-28.5-2.522-14.6-2.528-24.89-.018-31.5 1.044-2.75 2.713-7.587 3.708-10.749C18.622-.212 20.615-2 19.477 3.421c-.375 1.788-2.044 6.625-3.71 10.75-3.758 9.304-3.963 17.205-.891 34.38 2.357 13.18 2.635 20.15 1.09 27.32-1.233 5.73-15.761 35.695-15.882 32.76m94.044-39.806c-2.03-2.446.08-7.464 11.42-27.154 7.42-12.885 11.6-22.992 13.956-33.75.933-4.262 2.09-7.75 2.572-7.75 1.954 0-2.925 18.641-7.432 28.395-1.806 3.908-5.84 11.448-8.964 16.757-6.106 10.373-10.654 19.58-10.67 21.598-.006.784 1.417 1.25 3.819 1.25 5.184 0 9.46-3.037 28.171-20.01 10.557-9.577 17.492-15.05 21.745-17.16l6.245-3.1 17.755.584c10.018.33 21.241 1.294 25.755 2.213 13.498 2.748 22.594 2.868 37 .49 8.378-1.384 19.834-2.35 32.22-2.72l19.218-.573 1.499-5.154c1.98-6.809 9.399-22.57 10.625-22.57 1.024 0 .12 2.371-5.066 13.294-1.774 3.737-3.765 8.912-4.424 11.5l-1.198 4.706-19.937.618c-12.71.394-24.716 1.39-33.12 2.75-16.327 2.64-20.25 2.65-32.817.08-6.857-1.401-15.848-2.229-28.612-2.632-18.355-.581-18.686-.555-24 1.915-3.474 1.614-10.658 7.258-20.224 15.886-19.28 17.392-24.214 20.965-29.822 21.597-3.244.366-4.765.084-5.714-1.06m34.994-45.853c-.474-1.283-.253-5.138.531-9.25.74-3.878 1.345-8.513 1.346-10.301 0-2.222.476-3.25 1.501-3.25 1.963 0 1.938 3.67-.095 13.498-1.083 5.238-1.268 8.04-.576 8.731s3.373-.144 8.354-2.605c8.904-4.4 14.517-4.658 34.317-1.585 27.254 4.231 35.812 4.865 52.38 3.88 8.59-.51 23.412-1.32 32.935-1.799 17.061-.858 17.358-.911 20.226-3.66 1.601-1.533 4.118-5.864 5.593-9.624C287.182 3.06 288.912.17 289.726.17c1.675 0 1.2 2-2.379 10-2.92 6.53-6.644 10.696-10.237 11.453-4.363.919-50.84 3.547-62.727 3.547-7.234 0-18.47-1.076-32.014-3.066-11.478-1.687-24.019-3.122-27.869-3.19-6.16-.108-7.67.26-12.58 3.067-6.713 3.836-11.605 4.214-12.798.99M190 14.114c-10.412-1.677-25.41-3.315-34.308-3.747-11.851-.574-16.025-1.118-16.676-2.17-1.037-1.678.982-7.192 2.863-7.819.935-.312.843.43-.337 2.711-.893 1.728-1.396 3.509-1.118 3.958s7.158 1.096 15.29 1.436c8.341.35 23.263 1.942 34.232 3.654 25.964 4.051 50.983 3.866 73.483-.545 9.86-1.933 13.157-3.605 15.74-7.983 2.228-3.775 4.604-4.804 2.744-1.188-2.279 4.43-6.414 7.822-11.372 9.326-8.365 2.537-25.019 4.382-44.04 4.878-16.49.43-19.554.219-36.5-2.511M37.25 6.68C35.463 5.903 34 4.833 34 4.301c0-.531-.273-1.678-.607-2.548s-.109-1.582.5-1.582S35 .821 35 1.614c0 3.033 4.178 4.557 12.473 4.551C56.469 6.16 62.17 4.89 66.265 1.98c1.52-1.08 3.32-1.774 4-1.54 1.773.61-4.885 4.499-10.696 6.248-6.182 1.86-18.032 1.857-22.319-.007zm183.92-4.114c-8.505-2.108-7.044-2.998 2.297-1.4 6.981 1.193 16.784 1.047 29.533-.44L257.5.2 253 1.733c-6.728 2.291-24.107 2.746-31.83.833"/>
</svg>
