<svg width="112" height="112" viewBox="0 0 112 112" fill="none" xmlns="http://www.w3.org/2000/svg">
<rect width="112" height="112" rx="56" fill="#E54F26"/>
<path d="M34.4375 32L34.625 34.1875L38.125 73.75L38.25 75.125L39.5625 75.5L55.4375 79.9375L55.9375 80.0625L56.5 79.9375L72.375 75.5625L73.6875 75.1875L73.8125 73.8125L77.375 34.1875L77.5625 32.0625H75.375L36.625 32H34.4375ZM38.8125 36L73.1875 36.0625L69.9375 72.0625L56 75.9375L42 72.0625L38.8125 36ZM43.625 42L44.9375 56.9375H62.0625L61.5 63.375L56 64.875H55.9375L50.4375 63.375L50.125 59.25H45.125L45.8125 67.1875L55.9375 70H56L66.125 67.1875L67.5 52H49.4375L49 46.9375H67.9375L68.375 42H43.625Z" fill="white"/>
</svg>
