<svg width="32" height="32" viewBox="0 0 32 32" fill="none" xmlns="http://www.w3.org/2000/svg">
<path d="M16.0002 22.6666C15.2638 22.6666 14.6668 23.2635 14.6668 23.9999C14.6668 24.7363 15.2638 25.3333 16.0002 25.3333H16.0135C16.7499 25.3333 17.3468 24.7363 17.3468 23.9999C17.3468 23.2635 16.7499 22.6666 16.0135 22.6666H16.0002Z" fill="#292F36"/>
<path fill-rule="evenodd" clip-rule="evenodd" d="M9.3335 1.33325C7.12436 1.33325 5.3335 3.12411 5.3335 5.33325V26.6666C5.3335 28.8757 7.12436 30.6666 9.3335 30.6666H22.6668C24.876 30.6666 26.6668 28.8757 26.6668 26.6666V5.33325C26.6668 3.12411 24.876 1.33325 22.6668 1.33325H9.3335ZM8.00016 5.33325C8.00016 4.59687 8.59712 3.99992 9.3335 3.99992H22.6668C23.4032 3.99992 24.0002 4.59687 24.0002 5.33325V26.6666C24.0002 27.403 23.4032 27.9999 22.6668 27.9999H9.3335C8.59712 27.9999 8.00016 27.403 8.00016 26.6666V5.33325Z" fill="#292F36"/>
</svg>
