<svg width="112" height="112" viewBox="0 0 112 112" fill="none" xmlns="http://www.w3.org/2000/svg">
<rect width="112" height="112" rx="56" fill="#E7A020"/>
<path d="M55.9883 30C55.2583 30 54.5284 30.1791 53.8984 30.5391L34.0781 41.9805C32.7981 42.7205 32 44.1216 32 45.6016V66.3594C32 67.8594 32.7981 69.2405 34.0781 69.9805L39.2812 72.9805C41.8013 74.2205 42.6998 74.2188 43.8398 74.2188C47.5798 74.2188 49.7188 71.9591 49.7188 68.0391V46.6211C49.7188 46.3011 49.4606 46.0391 49.1406 46.0391H46.6406C46.3006 46.0391 46.0586 46.3011 46.0586 46.6211V68.0195C46.0586 69.7795 44.2408 71.4991 41.3008 70.0391L35.8594 66.8984C35.6594 66.7984 35.5391 66.5794 35.5391 66.3594V45.6211C35.5391 45.3811 35.6594 45.1786 35.8594 45.0586L55.6797 33.6211C55.8597 33.5011 56.1008 33.5011 56.3008 33.6211L76.1211 45.0586C76.3211 45.1786 76.4414 45.3816 76.4414 45.6016V66.3594C76.4414 66.5794 76.3206 66.7984 76.1406 66.8984L56.3008 78.3594C56.1208 78.4594 55.8597 78.4594 55.6797 78.3594L50.5781 75.3398C50.4381 75.2398 50.2416 75.2208 50.1016 75.3008C48.6816 76.1008 48.4216 76.2002 47.1016 76.6602C46.7816 76.7602 46.2812 76.9595 47.2812 77.5195L53.8984 81.4414C54.5384 81.8014 55.2605 82 55.9805 82C56.7205 82 57.4381 81.8014 58.0781 81.4414L77.9219 69.9805C79.2019 69.2405 80 67.8594 80 66.3594V45.6211C80 44.1211 79.2019 42.74 77.9219 42L58.0781 30.5391C57.4481 30.1791 56.7183 30 55.9883 30ZM61.3203 46.0117C55.6603 46.0117 52.2812 48.4102 52.2812 52.4102C52.2812 56.7502 55.6381 57.9483 61.0781 58.4883C67.5781 59.1283 68.0781 60.0911 68.0781 61.3711C68.0781 63.5711 66.3011 64.5117 62.1211 64.5117C56.8611 64.5117 55.7003 63.1898 55.3203 60.5898C55.2803 60.3098 55.0417 60.1094 54.7617 60.1094H52.1797C51.8597 60.1094 51.6211 60.3719 51.6211 60.6719C51.6211 64.0119 53.4411 67.9883 62.1211 67.9883C68.4011 67.9883 72 65.5114 72 61.1914C72 56.9114 69.0995 55.7692 63.0195 54.9492C56.8395 54.1492 56.2188 53.7291 56.2188 52.2891C56.2188 51.0891 56.7603 49.5117 61.3203 49.5117C65.3803 49.5117 66.8995 50.3889 67.5195 53.1289C67.5795 53.3889 67.7981 53.5898 68.0781 53.5898H70.6602C70.8202 53.5898 70.9581 53.5106 71.0781 53.3906C71.1781 53.2906 71.2388 53.1292 71.2188 52.9492C70.8187 48.2292 67.6803 46.0117 61.3203 46.0117Z" fill="white"/>
</svg>
